<svg xmlns="http://www.w3.org/2000/svg" width="400px" height="100px" viewBox="0 0 300 75.14"><defs><style>.cls-1{fill:#fff;}.cls-2{fill:#1d1d1b;}.cls-3{fill:#e30613;}</style></defs><g id="Layer_2" data-name="Layer 2"><g id="Layer_2-2" data-name="Layer 2"><rect class="cls-1" y="0.14" width="300" height="75"/></g></g><g id="Layer_1" data-name="Layer 1"><path class="cls-2" d="M50.25,69.32a3.15,3.15,0,0,1-3.15-3.16V34h8.75v28.5h6.86V34h8.4V66.16A3.15,3.15,0,0,1,68,69.32Z" transform="translate(0 0.14)"/><path class="cls-2" d="M142.44,56.55l6.13,12.63h-9.13l-7.83-15.24h-.81V69.18h-8.48V33.92h21a3.16,3.16,0,0,1,3.16,3.15V53.33a3.17,3.17,0,0,1-3.16,3.16Zm-4.7-7v-8.4H130.8v8.4Z" transform="translate(0 0.14)"/><path class="cls-2" d="M153.9,69.32a3.15,3.15,0,0,1-3.15-3.16v-29A3.15,3.15,0,0,1,153.9,34h17.36a3.15,3.15,0,0,1,3.15,3.15v29a3.15,3.15,0,0,1-3.15,3.16ZM166,62.52V41.11h-6.86V62.5Z" transform="translate(0 0.14)"/><polygon class="cls-2" points="174.41 34.18 183.7 34.18 189.03 47.68 193.63 34.18 202.93 34.18 193.18 56.36 193.18 69.33 184.87 69.33 184.87 56.44 174.41 34.18"/><path class="cls-2" d="M217.84,69.18h8.48L219.37,34H205.66l-6.41,35.16h8.48l1.1-6.66h7.84ZM210,54.76l2.58-15.67,2.69,15.67Z" transform="translate(0 0.14)"/><polygon class="cls-2" points="248.5 69.33 229.4 69.33 229.4 34.18 237.34 34.18 237.34 62.66 248.5 62.66 248.5 69.33"/><rect class="cls-2" x="107.84" y="34.16" width="8.66" height="35.16"/><polygon class="cls-2" points="94.03 34.18 94.03 57.2 87.35 34.18 85.38 34.18 81.3 34.18 76.79 34.18 76.79 69.33 85.38 69.33 85.38 48.68 91.15 69.33 94.03 69.33 97.56 69.33 102.61 69.33 102.61 34.18 94.03 34.18"/><polyline class="cls-2" points="138.15 0.22 138.15 8.87 149.4 29.11 161.36 29.11 151.26 9.09 151.73 0 170.59 29.11 182.54 29.11 164.59 0"/><polygon class="cls-3" points="135.15 10.54 134.72 9.75 134.72 8.87 134.72 0 45.37 0 45.37 29.11 145.48 29.11 145.48 29.11 135.15 10.54"/><polygon class="cls-3" points="248.36 0.22 218.19 0.22 218.19 8.87 218.19 9.75 217.76 10.54 207.52 29.11 207.44 29.11 248.36 29.11 248.36 0.22"/><line class="cls-2" x1="203.78" y1="29.09" x2="215.04" y2="8.4"/><path class="cls-2" d="M175.45.08l16.32,28.86h11.95L215,8.26V-.14m-19.5.22,6.18,9.06V25.59L186.31.08" transform="translate(0 0.14)"/></g></svg>