<svg id="Layer_1" data-name="Layer 1" xmlns="http://www.w3.org/2000/svg" xmlns:xlink="http://www.w3.org/1999/xlink" width="180" height="100" viewBox="0 0 180 100"><defs><style>.cls-1{fill:url(#_15K_55K);}.cls-2{fill:url(#_15K_55K-2);}.cls-3{fill:url(#_15K_55K-3);}.cls-4{fill:url(#_15K_55K-4);}.cls-5{fill:url(#_15K_55K-5);}.cls-6{fill:url(#_15K_55K-6);}.cls-7{fill:url(#_15K_55K-7);}.cls-8{fill:url(#_15K_55K-8);}.cls-9{fill:url(#_15K_55K-9);}.cls-10{fill:url(#_15K_55K-10);}.cls-11{fill:url(#_15K_55K-11);}.cls-12{fill:url(#_15K_55K-12);}.cls-13{fill:url(#_15K_55K-13);}.cls-14{fill:url(#_15K_55K-14);}.cls-15{fill:url(#_15K_55K-15);}.cls-16{fill:url(#_15K_55K-16);}.cls-17{fill:url(#_15K_55K-17);}.cls-18{fill:url(#_15K_55K-18);}.cls-19{fill:url(#_15K_55K-19);}.cls-20{fill:#d9d9d9;}.cls-21,.cls-22,.cls-23{stroke:#000;stroke-width:0.479px;}.cls-21{fill:url(#_485_TO_K);}.cls-22{fill:url(#_485_TO_K-2);}.cls-23{fill:url(#_485_TO_K-3);}.cls-24{fill:url(#_485_0-100_);}.cls-25{fill:url(#_485_0-100_2);}.cls-26{fill:url(#_485_0-100_3);}.cls-27{fill:#fff6f2;}.cls-28{fill:#feede6;}.cls-29{fill:#fee6dc;}.cls-30{fill:#fdded2;}.cls-31{fill:#fdd6c8;}.cls-32{fill:#fccebe;}.cls-33{fill:#fbc6b5;}.cls-34{fill:#fabeab;}.cls-35{fill:#fab6a2;}.cls-36{fill:#f9ae99;}.cls-37{fill:#f8a690;}.cls-38{fill:#f79f88;}.cls-39{fill:#f69881;}.cls-40{fill:#f69079;}.cls-41{fill:#f58972;}.cls-42{fill:#f4826b;}.cls-43{fill:#f47a64;}.cls-44{fill:#f47b65;}.cls-45{fill:#f47c65;}.cls-46{fill:#f47d66;}.cls-47{fill:#f47d67;}.cls-48{fill:#f47e67;}.cls-49{fill:#f47f68;}.cls-50{fill:#f47f69;}.cls-51{fill:#f48069;}.cls-52{fill:#f4816a;}.cls-53{fill:#f4836c;}.cls-54{fill:#f5846d;}.cls-55{fill:#f5856e;}.cls-56{fill:#f5866f;}.cls-57{fill:#f58770;}.cls-58{fill:#f58870;}.cls-59{fill:#f58871;}.cls-60{fill:#f58a73;}.cls-61{fill:#f58b73;}.cls-62{fill:#f58b74;}.cls-63{fill:#f58c75;}.cls-64{fill:#f58d75;}.cls-65{fill:#f68e76;}.cls-66{fill:#f68e77;}.cls-67{fill:#f68f78;}.cls-68{fill:#feefe8;}.cls-69{fill:#fee8e0;}.cls-70{fill:#fde2d7;}.cls-71{fill:#fddbcf;}.cls-72{fill:#fcd5c7;}.cls-73{fill:#fccfbf;}.cls-74{fill:#fbc8b7;}.cls-75{fill:#fbc2b0;}.cls-76{fill:#fabba7;}.cls-77{fill:#f9b4a0;}.cls-78{fill:#f8a892;}.cls-79{fill:#f8a28b;}.cls-80{fill:#f79c85;}.cls-81{fill:#f6967f;}.cls-82{fill:#f69078;}.cls-83{fill:#fee8df;}.cls-84{fill:#fde0d5;}.cls-85{fill:#fdd9cc;}.cls-86{fill:#fcd2c3;}.cls-87{fill:#fbcbba;}.cls-88{fill:#fbc4b3;}.cls-89{fill:#fabdaa;}.cls-90{fill:#f9af9a;}.cls-91{fill:#f8aa95;}.cls-92{fill:#f8a791;}.cls-93{fill:#f8a993;}.cls-94{fill:#f8a994;}.cls-95{fill:#f8a590;}.cls-96{fill:#f8a58f;}.cls-97{fill:#f8a48e;}.cls-98{fill:#f8a38d;}.cls-99{fill:#f8a28c;}.cls-100{fill:#f7a18a;}.cls-101{fill:#f7a08a;}.cls-102{fill:#f79f89;}.cls-103{fill:#f79e87;}.cls-104{fill:#f79d86;}.cls-105{fill:#f79c86;}.cls-106{fill:#f79b84;}.cls-107{fill:#f79a83;}.cls-108{fill:#f79982;}.cls-109{fill:#f69780;}.cls-110{fill:#fef0e9;}.cls-111{fill:#fee9e1;}.cls-112{fill:#fde3d9;}.cls-113{fill:#fdddd1;}.cls-114{fill:#fdd7ca;}.cls-115{fill:#fcd1c2;}.cls-116{fill:#fccbbb;}.cls-117{fill:#fbc5b4;}.cls-118{fill:#fbbfad;}.cls-119{fill:#fab9a6;}.cls-120{fill:#f9b39f;}.cls-121{fill:#f9ad98;}.cls-122{fill:#f6917a;}.cls-123{fill:#f47a63;}.cls-124{fill:#f37963;}.cls-125{fill:#f37862;}.cls-126{fill:#f37761;}.cls-127{fill:#f37661;}.cls-128{fill:#f37660;}.cls-129{fill:#f3755f;}.cls-130{fill:#f3745f;}.cls-131{fill:#f3735e;}.cls-132{fill:#f3735d;}.cls-133{fill:#f3725d;}.cls-134{fill:#f3715c;}.cls-135{fill:#f3705b;}.cls-136{fill:#f36f5b;}.cls-137{fill:#f36f5a;}.cls-138{fill:#fff;}.cls-139{fill:url(#_15K_55K-20);}.cls-140{fill:url(#_15K_55K-21);}.cls-141{fill:url(#_15K_55K-22);}.cls-142{fill:#ed1b2e;}.cls-143{fill:url(#Multi_Gray);}.cls-144{fill:url(#Multi_Gray-2);}.cls-145{fill:url(#Multi_Gray-3);}.cls-146{fill:url(#_485_TO_K-4);}.cls-147{fill:url(#_485_TO_K-5);}.cls-148{fill:url(#_485_TO_K-6);}.cls-149{fill:url(#_485_TO_K-7);}.cls-150{fill:url(#New_Gradient_1);}.cls-151{fill:url(#New_Gradient_1-2);}.cls-152{fill:url(#New_Gradient_1-3);}.cls-153{fill:url(#New_Gradient_1-4);}.cls-154{fill:url(#New_Gradient_1-5);}.cls-155{fill:url(#New_Gradient_1-6);}.cls-156{fill:url(#New_Gradient_1-7);}.cls-157{fill:url(#New_Gradient_1-8);}.cls-158{fill:url(#New_Gradient_1-9);}.cls-159{fill:url(#New_Gradient_1-10);}</style><linearGradient id="_15K_55K" x1="9197.112" y1="-71.031" x2="9197.112" y2="78.166" gradientTransform="translate(-1449.565 50.288) scale(0.168)" gradientUnits="userSpaceOnUse"><stop offset="0" stop-color="#e8e8e8"/><stop offset="1" stop-color="#4f4f4f"/></linearGradient><linearGradient id="_15K_55K-2" x1="9202.552" y1="-98.715" x2="9227.938" y2="13.841" xlink:href="#_15K_55K"/><linearGradient id="_15K_55K-3" x1="9292.111" y1="-80.551" x2="9286.364" y2="-33.135" xlink:href="#_15K_55K"/><linearGradient id="_15K_55K-4" x1="9352.376" y1="12.549" x2="9352.376" y2="64.516" xlink:href="#_15K_55K"/><linearGradient id="_15K_55K-5" x1="9346.181" y1="-76.019" x2="9357.037" y2="-12.475" xlink:href="#_15K_55K"/><linearGradient id="_15K_55K-6" x1="9163.299" y1="-107.912" x2="9163.299" y2="72.896" xlink:href="#_15K_55K"/><linearGradient id="_15K_55K-7" x1="9099.008" y1="-107.911" x2="9099.008" y2="72.896" xlink:href="#_15K_55K"/><linearGradient id="_15K_55K-8" x1="9180.336" y1="-67.951" x2="9182.584" y2="-7.767" xlink:href="#_15K_55K"/><linearGradient id="_15K_55K-9" x1="9075.119" y1="-63.806" x2="9089.01" y2="-2.977" xlink:href="#_15K_55K"/><linearGradient id="_15K_55K-10" x1="9132.337" y1="-90.917" x2="9132.337" y2="72.898" xlink:href="#_15K_55K"/><linearGradient id="_15K_55K-11" x1="9211.482" y1="-90.907" x2="9211.482" y2="72.897" xlink:href="#_15K_55K"/><linearGradient id="_15K_55K-12" x1="9052.97" y1="-90.915" x2="9052.97" y2="72.897" xlink:href="#_15K_55K"/><linearGradient id="_15K_55K-13" x1="9053.223" y1="-67.771" x2="9053.223" y2="60.295" xlink:href="#_15K_55K"/><linearGradient id="_15K_55K-14" x1="8863.724" y1="4.139" x2="8814.527" y2="4.14" xlink:href="#_15K_55K"/><linearGradient id="_15K_55K-15" x1="8997.339" y1="-64.948" x2="8997.339" y2="-27.648" xlink:href="#_15K_55K"/><linearGradient id="_15K_55K-16" x1="8911.33" y1="-67.259" x2="8911.33" y2="-28.564" xlink:href="#_15K_55K"/><linearGradient id="_15K_55K-17" x1="8981.311" y1="-20.943" x2="8981.311" y2="49.034" xlink:href="#_15K_55K"/><linearGradient id="_15K_55K-18" x1="8911.95" y1="12.547" x2="8911.95" y2="64.275" xlink:href="#_15K_55K"/><linearGradient id="_15K_55K-19" x1="8957.418" y1="-23.32" x2="8957.418" y2="19.281" xlink:href="#_15K_55K"/><linearGradient id="_485_TO_K" x1="8910.772" y1="-65.763" x2="8910.772" y2="93.572" gradientTransform="translate(-1449.565 50.288) scale(0.168)" gradientUnits="userSpaceOnUse"><stop offset="0.18" stop-color="#ed1b2e"/><stop offset="0.393" stop-color="#eb1b2e"/><stop offset="0.505" stop-color="#e31a2c"/><stop offset="0.594" stop-color="#d51829"/><stop offset="0.67" stop-color="#c21626"/><stop offset="0.739" stop-color="#a91321"/><stop offset="0.802" stop-color="#8b101b"/><stop offset="0.861" stop-color="#660c14"/><stop offset="0.916" stop-color="#3c070c"/><stop offset="0.967" stop-color="#0d0203"/><stop offset="0.98"/></linearGradient><linearGradient id="_485_TO_K-2" x1="9349.701" y1="-65.763" x2="9349.701" y2="93.573" xlink:href="#_485_TO_K"/><linearGradient id="_485_TO_K-3" x1="9131.941" y1="-65.763" x2="9131.941" y2="93.572" xlink:href="#_485_TO_K"/><linearGradient id="_485_0-100_" x1="8862.041" y1="-205.855" x2="8866.27" y2="-112.736" gradientTransform="translate(-1441.918 69.815) scale(0.168)" gradientUnits="userSpaceOnUse"><stop offset="0" stop-color="#fff"/><stop offset="1" stop-color="#ed1b2e"/></linearGradient><linearGradient id="_485_0-100_2" x1="9082.014" y1="-215.844" x2="9086.243" y2="-122.725" xlink:href="#_485_0-100_"/><linearGradient id="_485_0-100_3" x1="9299.909" y1="-225.739" x2="9304.138" y2="-132.619" xlink:href="#_485_0-100_"/><linearGradient id="_15K_55K-20" x1="9130.051" y1="-56.217" x2="9130.051" y2="13.49" xlink:href="#_15K_55K"/><linearGradient id="_15K_55K-21" x1="9130.731" y1="-105.904" x2="9130.731" y2="-36.199" gradientTransform="translate(-1443.505 66.348) scale(0.168)" xlink:href="#_15K_55K"/><linearGradient id="_15K_55K-22" x1="9125.261" y1="-112.617" x2="9125.261" y2="-42.911" gradientTransform="translate(-1454.224 68.517) scale(0.168)" xlink:href="#_15K_55K"/><linearGradient id="Multi_Gray" x1="8911.423" y1="-67.559" x2="8911.423" y2="38.332" gradientTransform="translate(-1449.565 50.288) scale(0.168)" gradientUnits="userSpaceOnUse"><stop offset="0" stop-color="#e8e8e8"/><stop offset="0.29" stop-color="gray"/><stop offset="0.337" stop-color="#848484"/><stop offset="0.38" stop-color="#8e8e8e"/><stop offset="0.42" stop-color="#a1a1a1"/><stop offset="0.459" stop-color="#bababa"/><stop offset="0.497" stop-color="#dbdbdb"/><stop offset="0.51" stop-color="#e8e8e8"/><stop offset="0.622" stop-color="#e3e3e3"/><stop offset="0.761" stop-color="#d3d3d3"/><stop offset="0.81" stop-color="#ccc"/><stop offset="1" stop-color="#595959"/></linearGradient><linearGradient id="Multi_Gray-2" x1="9131.811" y1="-67.56" x2="9131.811" y2="38.331" xlink:href="#Multi_Gray"/><linearGradient id="Multi_Gray-3" x1="9350.362" y1="-67.56" x2="9350.362" y2="38.331" xlink:href="#Multi_Gray"/><linearGradient id="_485_TO_K-4" x1="8910.573" y1="-64.592" x2="8911.85" y2="85.164" xlink:href="#_485_TO_K"/><linearGradient id="_485_TO_K-5" x1="9131.345" y1="-66.476" x2="9132.623" y2="83.281" xlink:href="#_485_TO_K"/><linearGradient id="_485_TO_K-6" x1="9428.522" y1="34.548" x2="9428.522" y2="34.551" xlink:href="#_485_TO_K"/><linearGradient id="_485_TO_K-7" x1="9349.228" y1="-68.333" x2="9350.506" y2="81.422" xlink:href="#_485_TO_K"/><linearGradient id="New_Gradient_1" x1="8910.745" y1="-77.258" x2="8910.745" y2="39.848" gradientTransform="translate(-1449.565 50.288) scale(0.168)" gradientUnits="userSpaceOnUse"><stop offset="0" stop-color="#fff"/><stop offset="0.106" stop-color="snow"/><stop offset="0.238" stop-color="#fdeaec"/><stop offset="0.385" stop-color="#fbd1d5"/><stop offset="0.542" stop-color="#f9adb4"/><stop offset="0.707" stop-color="#f57f8a"/><stop offset="0.876" stop-color="#f14857"/><stop offset="1" stop-color="#ed1b2e"/></linearGradient><linearGradient id="New_Gradient_1-2" x1="8911.001" y1="-51.394" x2="8911.001" y2="75.052" xlink:href="#New_Gradient_1"/><linearGradient id="New_Gradient_1-3" x1="8957.609" y1="-51.393" x2="8957.609" y2="75.051" xlink:href="#New_Gradient_1"/><linearGradient id="New_Gradient_1-4" x1="9068.493" y1="-51.394" x2="9068.493" y2="75.054" xlink:href="#New_Gradient_1"/><linearGradient id="New_Gradient_1-5" x1="9073.439" y1="-77.258" x2="9073.439" y2="39.847" xlink:href="#New_Gradient_1"/><linearGradient id="New_Gradient_1-6" x1="9189.73" y1="-51.394" x2="9189.73" y2="75.05" xlink:href="#New_Gradient_1"/><linearGradient id="New_Gradient_1-7" x1="9138.356" y1="-23.221" x2="9138.835" y2="80.711" xlink:href="#New_Gradient_1"/><linearGradient id="New_Gradient_1-8" x1="9189.951" y1="-77.258" x2="9189.951" y2="39.848" xlink:href="#New_Gradient_1"/><linearGradient id="New_Gradient_1-9" x1="9349.615" y1="-77.258" x2="9349.615" y2="39.848" xlink:href="#New_Gradient_1"/><linearGradient id="New_Gradient_1-10" x1="9361.549" y1="-51.395" x2="9361.549" y2="75.053" xlink:href="#New_Gradient_1"/></defs><title>toyota copy 2</title><path class="cls-1" d="M99.061,44.115l-1.8,6.152c.182.027.28.423.266.694-.02.388.02,8.83.02,9.063a.949.949,0,0,0,.215.558l3.44-4.633V42.627Z"/><path class="cls-2" d="M105.54,40.137a1.939,1.939,0,0,0-.076-.477L101.2,42.627V55.949l.039-.054,4.3,4.369a5.784,5.784,0,0,0,.022-.7C105.56,58.63,105.6,41.009,105.54,40.137Z"/><path class="cls-3" d="M117.633,53.784a2.081,2.081,0,0,1-.03-.44c.02-.55-.018-5.733-.036-6.469a1.921,1.921,0,0,1,.02-.372,11.054,11.054,0,0,0-7.6-3.172,5.063,5.063,0,0,0-.139,1.137s.014,10.366.014,11.3a5.683,5.683,0,0,0,.677,2.262C115.21,56.572,116.97,54.8,117.633,53.784Z"/><path class="cls-4" d="M138.364,54.157c-1.916.006-19.908.019-20.276.019a.423.423,0,0,1-.455-.392c-.663,1.014-2.423,2.788-7.1,4.242a5.268,5.268,0,0,0,4.668,2.792c1.152-.008,23.642-.045,24.126-.019.719.036.775-.349.814-.891a42.993,42.993,0,0,0,0-4.764C139.971,54.253,139.991,54.152,138.364,54.157Z"/><path class="cls-5" d="M117.587,46.5a.618.618,0,0,1,.677-.576c1.975.018,20.118,0,20.894,0,.681,0,.773-.136.947-.989a30.536,30.536,0,0,0,.079-4.424c-.086-.89-.354-1.351-1.338-1.356-1.1,0-23.565.035-24.056.055a5.541,5.541,0,0,0-4.806,4.118A11.054,11.054,0,0,1,117.587,46.5Z"/><path class="cls-6" d="M91.131,60.534c.095-.121.212-.285.39-.51.6-.755,4.976-8.791,5.461-9.547.107-.164.2-.22.276-.21l1.8-6.152-11.053,11.7Z"/><path class="cls-7" d="M79.1,50.238c.159-.086.372-.038.531.258.309.582,5,8.926,5.4,9.586a1.941,1.941,0,0,0,.476.534l2.953-4.1L76.953,43.791Z"/><path class="cls-8" d="M104.378,39.187c-.484-.019-8.229-.019-8.578,0a1.772,1.772,0,0,0-1.607.988c-.322.484-1.241,2.073-2.234,3.835-1.344,2.388-2.826,5.095-3.148,5.809-.294.648-.427.58-.524.6a.239.239,0,0,1-.091.007l-.188,5.388,11.053-11.7,6.4-4.455C105.341,39.279,105.053,39.215,104.378,39.187Z"/><path class="cls-9" d="M87.706,49.742c-.2-.432-1.809-3.35-3.194-5.84-1.041-1.866-1.955-3.492-2.054-3.649A1.909,1.909,0,0,0,80.7,39.072c-.136,0-8.035-.038-8.443.019a2.739,2.739,0,0,0-.659.167l5.359,4.533L88.008,55.814l.188-5.388C88.1,50.41,87.959,50.29,87.706,49.742Z"/><path class="cls-10" d="M85.51,60.616a1.3,1.3,0,0,0,.841.28c.368-.02,3.35,0,4.008-.02.463-.014.554-.056.772-.342l-2.579-4.377Z"/><path class="cls-11" d="M97.759,60.582a.856.856,0,0,0,.675.352c.973,0,6.041.019,6.2,0,.663-.082.854-.263.908-.67l-4.3-4.369Z"/><path class="cls-12" d="M71.031,60.508a.7.7,0,0,0,.641.388c.776.028,5.927.018,6.449,0,.548-.021.7-.214.758-.494L74.774,56.3Z"/><path class="cls-13" d="M71.594,39.258A1.093,1.093,0,0,0,70.9,40.35c.037.484-.02,18.937,0,19.558a1.387,1.387,0,0,0,.132.6L74.774,56.3,78.879,60.4h0a4.218,4.218,0,0,0,.036-.493c.1-1.762.02-8.87-.019-9.14a.487.487,0,0,1,.2-.53l-2.148-6.447Z"/><path class="cls-14" d="M43.273,53.8c.048-1.806-.018-6.068-.034-7.273L35.462,43.3a3.741,3.741,0,0,0-.117.958c.016.659-.089,6.041.038,10.729a6.318,6.318,0,0,0,1.229,3.776l6.659-4.813C43.271,53.906,43.271,53.855,43.273,53.8Z"/><path class="cls-15" d="M66.474,45.694c.23-.061.318-.228.318-.543,0,0,.026-4.142.012-5.047a1.121,1.121,0,0,0-.06-.371l-2.379,3.009Z"/><path class="cls-16" d="M43.237,46.332a.585.585,0,0,1,.628-.638c1.405,0,21.969.02,22.347.026a.971.971,0,0,0,.262-.026l-2.109-2.952,2.379-3.009c-.194-.545-.821-.577-1.384-.6-2.013.019-24.361.071-24.671.091A5.41,5.41,0,0,0,35.462,43.3l7.777,3.224C43.238,46.45,43.237,46.384,43.237,46.332Z"/><path class="cls-17" d="M66.583,47.147l-5.928,4.391L58.936,53.6c.02.187.021.411.021.566L65.8,58.612a8.376,8.376,0,0,0,1.009-3.874c.038-.717.032-6.244.006-6.926A1.023,1.023,0,0,0,66.583,47.147Z"/><path class="cls-18" d="M58.957,54.176c0,.193-.129.245-.3.257H43.606c-.281,0-.334-.156-.335-.48l-6.659,4.813a5.39,5.39,0,0,0,4.194,2.071c2.654,0,15.666-.019,20.662.019A4.654,4.654,0,0,0,65.8,58.612l-6.846-4.446Z"/><path class="cls-19" d="M65.979,46.869c-2.246-.122-11.953-.1-13.194,0a1.694,1.694,0,0,0-1.639,1.551l2.65.939-2.274,3.228a1.671,1.671,0,0,0,1.484.67s5.369-.01,5.5,0,.374,0,.413.209c.007.041.013.086.018.134l1.719-2.062,5.928-4.391A.864.864,0,0,0,65.979,46.869Z"/><path class="cls-20" d="M51.146,48.42v.023c.009.7-.053,1.9.049,3.111a2.142,2.142,0,0,0,.328,1.033L53.8,49.359Z"/><path class="cls-21" d="M64.727,40.647c.194.006.645-.092.684.7S65.4,43.564,65.4,43.9s-.219.506-.581.519-21.326,0-21.326,0a1.581,1.581,0,0,0-1.653,1.635c.016.891.05,8.025.065,8.225a1.616,1.616,0,0,0,1.691,1.587c1.272.029,14.3.037,15.014.013a1.6,1.6,0,0,0,1.639-1.729c.013-1.24.014-1.68,0-1.86s-.014-.387-.452-.4-6.274,0-6.725,0-.618-.156-.646-.646-.036-2.182-.026-2.439c.014-.376.13-.515.723-.517.452,0,11.464-.014,11.761-.014s.483.039.509.683.007,5.85.007,6.2a4.353,4.353,0,0,1-4.221,4.3c-3.267.1-19.945.051-20.269.051a4.637,4.637,0,0,1-4.234-4.2c-.1-1.091-.083-9.8-.077-10.341.007-.813.9-4.253,4.267-4.33S64.224,40.627,64.727,40.647Z"/><path class="cls-22" d="M111.118,45.248a4.47,4.47,0,0,1,4.338-4.491c2.769-.06,22.054-.04,22.52-.019s.794.192.774.773,0,1.7-.038,2.286-.076.7-.756.715-18.8,0-20.041,0a1.7,1.7,0,0,0-1.82,1.666c.018.736.057,7.533.114,8a1.539,1.539,0,0,0,1.571,1.49c1.259.02,19.867-.018,20.311-.018s.6.27.621.812,0,1.9-.02,2.325-.1.58-.736.6-20.2.136-22.636.078a4.331,4.331,0,0,1-4.221-4.493C111.1,52.491,111.136,46.507,111.118,45.248Z"/><path class="cls-23" d="M72.305,41.3c0-.749.554-.581.71-.594s7.306-.027,7.577,0,.375.206.647.673,6.452,11.44,6.584,11.7c.18.348.477.618.774.1s6.674-11.826,6.856-12.109.372-.3.669-.31,7.579.013,7.579.013c.348.014.5.231.529.709s.008,17.532.008,17.532a.5.5,0,0,1-.551.567H99.463c-.233,0-.477,0-.464-.762s0-13.838,0-13.838-.1-.5-.384,0-4.945,9.272-8.173,14.462a.453.453,0,0,1-.412.17c-.428,0-3.59-.013-3.59-.013-.154,0-.257.02-.452-.29S78.077,45.137,77.87,44.854s-.426-.2-.426.143c0,1.717.012,13.722.024,14.007s0,.579-.554.606-4.119.041-4.377-.05-.259-.235-.271-.531S72.305,42.053,72.305,41.3Z"/><path class="cls-24" d="M64.894,48.752h0l-11.761.013a1.555,1.555,0,0,0-.238.015l0,.034c-.009.241,0,1.922.026,2.4a.9.9,0,0,0,.024.179.776.776,0,0,0,.138.011l.765,0c2.775-.005,5.655-.009,5.975,0a.829.829,0,0,1,.92.831v.016c.014.191.015.563,0,1.9a2.086,2.086,0,0,1-2.108,2.21c-.749.025-13.821.013-15.04-.013a2.1,2.1,0,0,1-2.164-2.04c-.007-.107-.017-1.347-.035-4.149-.012-1.806-.024-3.677-.03-4.1a2.117,2.117,0,0,1,.6-1.519,2.093,2.093,0,0,1,1.539-.609c7.223,0,20.972.009,21.31,0a.393.393,0,0,0,.113-.016v-.019c0-.1,0-.263.008-.475.012-.56.032-1.5,0-2.059a.727.727,0,0,0-.04-.235.8.8,0,0,0-.085,0h-.093c-.66-.025-20.709-.077-23.834-.006-3.068.071-3.789,3.266-3.795,3.851-.006.722-.016,9.261.076,10.294a4.184,4.184,0,0,0,3.753,3.754l.368,0c5.076.012,17.177.033,19.885-.054a3.894,3.894,0,0,0,3.753-3.815v-.47c0-1.279.013-5.17-.008-5.707A2.092,2.092,0,0,0,64.894,48.752Z"/><path class="cls-25" d="M103.753,41.5a.815.815,0,0,0-.04-.249l-.019,0c-2.911-.011-7.315-.023-7.542-.014s-.237.011-.283.084c-.139.224-3.008,5.3-4.905,8.662l-1.94,3.431a.88.88,0,0,1-.784.529c-.232-.005-.566-.121-.84-.652-.14-.265-6.281-11.176-6.577-11.681a3.01,3.01,0,0,0-.273-.427c-.429-.022-7.222-.01-7.5,0h.012a.962.962,0,0,1-.162,0c-.025,0-.063,0-.094,0a.718.718,0,0,0-.008.116l-.01,3.777c-.013,4.77-.037,13.646-.029,13.929v.016c0,.024,0,.052,0,.076.642.055,3.526.054,4.137.025a.579.579,0,0,0,.1-.011c0-.02,0-.05,0-.09-.015-.323-.026-13.891-.026-14.028a.694.694,0,0,1,1.3-.429c.121.167,1.748,3.066,5.344,9.5C85,56.555,86.32,58.907,86.406,59.05c.018.026.03.045.042.061h0l3.588.013h.04c2.741-4.417,6.491-11.366,7.728-13.656.22-.406.351-.651.395-.73.248-.439.539-.494.739-.462a.7.7,0,0,1,.54.607l.01.046v.047c0,.535.012,13.09,0,13.849a1.461,1.461,0,0,0,.014.268H103.7a.054.054,0,0,0,.067-.082C103.766,54.281,103.774,41.92,103.753,41.5Z"/><path class="cls-26" d="M138.235,56.47a.815.815,0,0,0-.056-.338.256.256,0,0,0-.08-.008l-1.515,0c-4.39.009-17.749.034-18.805.017a2,2,0,0,1-2.042-1.915c-.039-.317-.065-2.728-.093-5.846-.013-1.1-.021-1.964-.027-2.2a2.1,2.1,0,0,1,.6-1.486,2.305,2.305,0,0,1,1.7-.676l2.191,0c5.176,0,17.292.013,17.838,0a2.32,2.32,0,0,0,.264-.02c.011-.077.017-.189.021-.245.023-.331.028-.875.028-1.356,0-.346,0-.671.011-.913.007-.206.007-.262-.312-.276-.482-.019-19.725-.038-22.49.02a3.977,3.977,0,0,0-3.863,4.005c.012.773,0,3.3-.009,5.751l-.011,3.974a3.861,3.861,0,0,0,3.749,4.009c2.368.055,21.778-.052,22.61-.078a1.489,1.489,0,0,0,.259-.023c0-.027.007-.064.011-.114C138.235,58.32,138.254,56.977,138.235,56.47Z"/><path class="cls-27" d="M37.666,43.3a3.784,3.784,0,0,1,3.066-2.1H64.588c.148.024.169.1.243.493-.09-.217-.082-.251-.243-.251H40.76A3.856,3.856,0,0,0,37.666,43.3Z"/><path class="cls-27" d="M127.324,41.451H115.3a4.16,4.16,0,0,0-3.087,1.829,3.873,3.873,0,0,1,3.061-2.073h22.44c.237-.02.372-.027.42.459-.162-.161-.187-.217-.42-.215Z"/><path class="cls-28" d="M115.3,41.477a4.166,4.166,0,0,0-3.091,1.815,3.877,3.877,0,0,1,3.065-2.056h22.442c.233-.022.376-.021.422.454-.161-.161-.195-.214-.422-.213H115.3Z"/><path class="cls-29" d="M115.3,41.5a4.175,4.175,0,0,0-3.095,1.8,3.893,3.893,0,0,1,3.07-2.041h22.443c.227-.022.382-.01.426.453-.163-.162-.2-.212-.426-.212H115.3Z"/><path class="cls-30" d="M115.3,41.531a4.179,4.179,0,0,0-3.1,1.784,3.915,3.915,0,0,1,3.074-2.027h22.446c.223-.022.387,0,.428.452-.162-.163-.209-.211-.428-.209H115.3Z"/><path class="cls-31" d="M115.3,41.557a4.186,4.186,0,0,0-3.107,1.77,3.929,3.929,0,0,1,3.079-2.012h22.448c.219-.023.39.007.43.448-.16-.162-.215-.208-.43-.206H115.3Z"/><path class="cls-32" d="M115.294,41.583a4.189,4.189,0,0,0-3.113,1.756,3.943,3.943,0,0,1,3.085-2h22.449c.215-.024.394.016.431.446a.481.481,0,0,0-.431-.2H115.294Z"/><path class="cls-33" d="M115.292,41.611a4.19,4.19,0,0,0-3.117,1.74,3.967,3.967,0,0,1,3.089-1.983h22.45c.213-.024.4.026.437.444a.493.493,0,0,0-.437-.2H115.292Z"/><path class="cls-34" d="M115.29,41.638a4.2,4.2,0,0,0-3.123,1.725,3.989,3.989,0,0,1,3.1-1.969h22.45c.206-.024.4.035.439.442a.5.5,0,0,0-.439-.2H115.29Z"/><path class="cls-35" d="M115.288,41.664a4.2,4.2,0,0,0-3.126,1.71,4.007,4.007,0,0,1,3.1-1.953h22.453c.2-.024.407.044.441.44a.5.5,0,0,0-.441-.2H115.288Z"/><path class="cls-36" d="M115.286,41.69a4.2,4.2,0,0,0-3.13,1.7,4.015,4.015,0,0,1,3.1-1.937h22.454c.2-.026.414.053.444.436a.517.517,0,0,0-.444-.2H115.286Z"/><path class="cls-37" d="M115.284,41.717A4.2,4.2,0,0,0,112.15,43.4a4.034,4.034,0,0,1,3.108-1.923h22.456c.192-.024.416.062.448.434a.523.523,0,0,0-.448-.192h-22.43Z"/><path class="cls-38" d="M115.281,41.744a4.21,4.21,0,0,0-3.14,1.666,4.074,4.074,0,0,1,3.114-1.909h22.459c.188-.024.421.072.449.432a.525.525,0,0,0-.449-.189H115.281Z"/><path class="cls-39" d="M115.281,41.77a4.212,4.212,0,0,0-3.146,1.652,4.086,4.086,0,0,1,3.119-1.894h22.46a.406.406,0,0,1,.451.43.53.53,0,0,0-.451-.188H115.281Z"/><path class="cls-40" d="M115.28,41.8a4.211,4.211,0,0,0-3.15,1.637,4.1,4.1,0,0,1,3.121-1.878h22.463a.414.414,0,0,1,.455.427.544.544,0,0,0-.455-.186H115.28Z"/><path class="cls-41" d="M115.277,41.823a4.214,4.214,0,0,0-3.154,1.623,4.123,4.123,0,0,1,3.128-1.865h22.463a.422.422,0,0,1,.457.426.547.547,0,0,0-.457-.184H115.277Z"/><path class="cls-42" d="M115.275,41.85a4.207,4.207,0,0,0-3.158,1.608,4.149,4.149,0,0,1,3.131-1.851h22.466a.433.433,0,0,1,.46.424.56.56,0,0,0-.46-.181H115.275Z"/><path class="cls-27" d="M77.245,41.526l-3.871-.006c-.469-.066-.495.6-.495.6-.044-.692.1-.913.424-.9l6.986.009c.261,0,.348.238.463.475-.172-.122-.156-.172-.4-.172Z"/><path class="cls-43" d="M103.744,43.472c.039-.462-.344-.479-.818-.478l-8.152.321c-.06.008-.039.068-.3.462a1.4,1.4,0,0,1,.716-.222l7.85-.322A1.685,1.685,0,0,1,103.744,43.472Z"/><path class="cls-27" d="M99.312,41.541c1.887,0,3.861-.026,3.861-.026.315,0,.493.6.493.6,0-.85-.121-.905-.423-.905l-7.063.021c-.264,0-.354.2-.445.474a1.156,1.156,0,0,1,.656-.161Z"/><path class="cls-44" d="M94.507,43.719a1.388,1.388,0,0,1,.716-.221s1.391-.054,3-.119c1.985-.079,4.3-.171,4.741-.19.051,0,.076,0,.077,0a1.611,1.611,0,0,1,.7.251c.039-.469-.333-.493-.8-.493h-.013l-8.09.31h-.026C94.75,43.265,94.764,43.329,94.507,43.719Z"/><path class="cls-45" d="M94.542,43.66a1.391,1.391,0,0,1,.718-.218s1.395-.055,3-.116l4.713-.183.078,0a1.568,1.568,0,0,1,.686.263c.038-.478-.326-.506-.781-.506h-.016l-8.06.3-.027,0C94.786,43.205,94.793,43.275,94.542,43.66Z"/><path class="cls-46" d="M94.578,43.6a1.408,1.408,0,0,1,.718-.216l3-.11c1.977-.075,4.278-.16,4.683-.177l.077,0a1.5,1.5,0,0,1,.677.275c.036-.487-.316-.519-.764-.52h-.019l-8.03.286-.027,0C94.82,43.146,94.822,43.221,94.578,43.6Z"/><path class="cls-47" d="M94.613,43.54a1.41,1.41,0,0,1,.719-.213l3.006-.107c1.973-.072,4.264-.154,4.654-.171.046,0,.074,0,.077,0a1.438,1.438,0,0,1,.667.287c.036-.5-.308-.532-.746-.535a.09.09,0,0,0-.023,0l-8,.277h-.026C94.856,43.086,94.85,43.165,94.613,43.54Z"/><path class="cls-48" d="M94.647,43.481a1.4,1.4,0,0,1,.72-.212l3.009-.1c1.968-.067,4.248-.147,4.624-.162a.671.671,0,0,1,.077,0,1.389,1.389,0,0,1,.657.3c.033-.5-.3-.547-.728-.551h-.028l-7.969.265h-.027C94.89,43.026,94.88,43.11,94.647,43.481Z"/><path class="cls-49" d="M94.683,43.422a1.4,1.4,0,0,1,.721-.21l3.009-.1c1.964-.066,4.236-.143,4.595-.158a.407.407,0,0,1,.076,0,1.342,1.342,0,0,1,.648.311c.032-.513-.29-.558-.709-.564h-.033l-7.939.254h-.026C94.927,42.966,94.911,43.056,94.683,43.422Z"/><path class="cls-50" d="M94.72,43.361a1.4,1.4,0,0,1,.72-.207l3.01-.094c1.959-.063,4.223-.137,4.566-.151a.427.427,0,0,1,.077,0,1.314,1.314,0,0,1,.637.324c.029-.523-.281-.573-.692-.579a.194.194,0,0,0-.035,0l-7.91.243h-.027C94.963,42.907,94.939,43,94.72,43.361Z"/><path class="cls-51" d="M94.753,43.3a1.417,1.417,0,0,1,.723-.206l3.012-.09c1.953-.061,4.208-.131,4.536-.145h.075a1.282,1.282,0,0,1,.629.336c.029-.531-.272-.586-.674-.592a.249.249,0,0,0-.04,0l-7.879.231-.028,0C95,42.847,94.968,42.945,94.753,43.3Z"/><path class="cls-52" d="M94.79,43.243a1.406,1.406,0,0,1,.723-.2c.028,0,1.426-.04,3.012-.088,1.948-.057,4.194-.124,4.507-.137a.337.337,0,0,1,.076,0,1.234,1.234,0,0,1,.618.348c.027-.541-.263-.6-.655-.608a.339.339,0,0,0-.046,0l-7.847.221h-.029C95.033,42.787,95,42.891,94.79,43.243Z"/><path class="cls-42" d="M94.824,43.184a1.409,1.409,0,0,1,.724-.2c.032,0,1.434-.038,3.015-.082,1.943-.054,4.18-.119,4.476-.13a.351.351,0,0,1,.076,0,1.2,1.2,0,0,1,.609.359c.026-.549-.255-.613-.637-.623h-.051l-7.817.209h-.028C95.069,42.728,95.026,42.836,94.824,43.184Z"/><path class="cls-42" d="M94.86,43.124a1.421,1.421,0,0,1,.724-.2l3.016-.077c1.939-.053,4.168-.113,4.447-.125a.3.3,0,0,1,.076,0,1.172,1.172,0,0,1,.6.372c.026-.558-.245-.627-.62-.637a.452.452,0,0,0-.054,0l-7.787.2h-.027C95.1,42.669,95.056,42.78,94.86,43.124Z"/><path class="cls-53" d="M94.9,43.064a1.4,1.4,0,0,1,.724-.2c.041,0,1.441-.034,3.015-.074,1.936-.049,4.154-.107,4.42-.118a.451.451,0,0,1,.075,0,1.155,1.155,0,0,1,.589.384c.024-.566-.237-.64-.6-.65a.461.461,0,0,0-.056,0L95.3,42.6l-.029,0C95.139,42.609,95.085,42.726,94.9,43.064Z"/><path class="cls-54" d="M94.931,43.005a1.414,1.414,0,0,1,.724-.2c.047,0,1.447-.033,3.019-.071,1.93-.047,4.14-.1,4.389-.111a.262.262,0,0,1,.075,0,1.116,1.116,0,0,1,.58.4c.022-.575-.227-.652-.583-.665a.4.4,0,0,0-.062,0l-7.726.177-.031,0C95.175,42.55,95.114,42.672,94.931,43.005Z"/><path class="cls-55" d="M94.967,42.945a1.421,1.421,0,0,1,.725-.192c.049,0,1.452-.032,3.02-.067,1.925-.044,4.126-.095,4.359-.1a.285.285,0,0,1,.075,0,1.107,1.107,0,0,1,.57.409c.022-.585-.219-.668-.566-.682-.018,0-.043,0-.065,0l-7.7.166h-.031C95.212,42.49,95.143,42.616,94.967,42.945Z"/><path class="cls-55" d="M95,42.886a1.424,1.424,0,0,1,.727-.192c.054,0,1.457-.028,3.022-.061,1.92-.041,4.111-.089,4.329-.1a.293.293,0,0,1,.076,0c.292.041.559.42.559.42.02-.593-.209-.68-.548-.7-.019,0-.046,0-.069,0l-7.666.155H95.4C95.245,42.431,95.173,42.562,95,42.886Z"/><path class="cls-56" d="M95.037,42.827a1.424,1.424,0,0,1,.727-.19c.058,0,1.461-.027,3.022-.057,1.916-.038,4.1-.085,4.3-.092a.435.435,0,0,1,.075,0c.291.045.549.433.549.433.019-.6-.2-.692-.529-.708a.55.55,0,0,0-.074,0l-7.635.145h-.03C95.282,42.371,95.2,42.507,95.037,42.827Z"/><path class="cls-57" d="M95.073,42.767a1.419,1.419,0,0,1,.727-.187c.061,0,1.466-.025,3.024-.055,1.912-.035,4.085-.076,4.271-.084a.267.267,0,0,1,.074,0c.292.045.541.444.541.444.016-.611-.192-.706-.511-.723a.67.67,0,0,0-.079,0l-7.605.132a.146.146,0,0,0-.03,0C95.318,42.311,95.232,42.452,95.073,42.767Z"/><path class="cls-58" d="M95.107,42.708a1.42,1.42,0,0,1,.73-.186c.066,0,1.469-.023,3.025-.049,1.906-.033,4.07-.072,4.241-.079a.275.275,0,0,1,.074.005c.289.05.531.457.531.457.016-.62-.184-.72-.493-.737a.723.723,0,0,0-.083,0l-7.575.12a.146.146,0,0,0-.03,0C95.353,42.252,95.26,42.4,95.107,42.708Z"/><path class="cls-59" d="M95.143,42.648a1.44,1.44,0,0,1,.729-.183c.069,0,1.474-.021,3.026-.046,1.9-.03,4.058-.065,4.213-.072a.338.338,0,0,1,.075.006c.286.052.52.469.52.469.014-.628-.175-.732-.475-.753-.026,0-.056,0-.088,0l-7.544.11-.031,0C95.389,42.192,95.29,42.342,95.143,42.648Z"/><path class="cls-41" d="M95.178,42.589a1.422,1.422,0,0,1,.731-.182c.072,0,1.479-.018,3.028-.04,1.895-.028,4.042-.06,4.181-.067a.277.277,0,0,1,.075.007c.286.054.51.48.51.48.014-.636-.165-.746-.455-.766a.685.685,0,0,0-.092,0l-7.513.1h-.034C95.425,42.132,95.319,42.287,95.178,42.589Z"/><path class="cls-60" d="M95.214,42.529a1.43,1.43,0,0,1,.731-.179c.076,0,1.483-.017,3.028-.038,1.892-.024,4.03-.054,4.154-.058a.241.241,0,0,1,.073.006c.285.058.5.493.5.493.013-.645-.157-.759-.439-.78a.682.682,0,0,0-.095,0l-7.484.089h-.032C95.46,42.073,95.348,42.233,95.214,42.529Z"/><path class="cls-61" d="M95.249,42.469a1.445,1.445,0,0,1,.732-.176l3.03-.033c1.886-.022,4.016-.049,4.124-.053a.214.214,0,0,1,.073.007c.283.059.491.505.491.505.011-.654-.148-.773-.421-.8a.743.743,0,0,0-.1-.005L95.725,42h-.031C95.494,42.013,95.377,42.178,95.249,42.469Z"/><path class="cls-62" d="M95.284,42.411a1.429,1.429,0,0,1,.733-.176c.084,0,1.493-.013,3.032-.029,1.882-.018,4-.042,4.094-.046a.25.25,0,0,1,.073.008c.281.062.482.516.482.516.008-.663-.14-.785-.4-.81-.03,0-.064,0-.1,0l-7.423.066-.033,0C95.531,41.954,95.406,42.123,95.284,42.411Z"/><path class="cls-63" d="M95.319,42.351a1.437,1.437,0,0,1,.734-.173l3.032-.025c1.878-.017,3.989-.035,4.066-.039a.242.242,0,0,1,.072.008c.28.065.473.528.473.528.006-.672-.131-.8-.385-.824a.894.894,0,0,0-.107-.005l-7.393.056h-.033C95.567,41.9,95.436,42.067,95.319,42.351Z"/><path class="cls-64" d="M95.354,42.292a1.439,1.439,0,0,1,.736-.171l3.033-.022c1.874-.013,3.974-.03,4.037-.032a.255.255,0,0,1,.072.008c.276.069.462.541.462.541,0-.681-.122-.813-.368-.838a.923.923,0,0,0-.11-.006l-7.363.045h-.034C95.6,41.835,95.465,42.013,95.354,42.292Z"/><path class="cls-65" d="M95.391,42.232a1.433,1.433,0,0,1,.734-.168l3.035-.018c1.87-.011,3.96-.025,4.007-.027a.294.294,0,0,1,.072.009c.276.071.453.555.453.555,0-.69-.113-.828-.35-.853a.7.7,0,0,0-.116-.006l-7.33.033-.035,0C95.637,41.775,95.494,41.958,95.391,42.232Z"/><path class="cls-66" d="M95.425,42.172a1.446,1.446,0,0,1,.737-.167l3.036-.012c1.864-.008,3.948-.018,3.977-.02a.275.275,0,0,1,.073.009c.273.073.442.566.442.566,0-.7-.105-.84-.332-.867a.9.9,0,0,0-.12,0l-7.3.022H95.9C95.674,41.716,95.525,41.9,95.425,42.172Z"/><path class="cls-67" d="M95.461,42.114a1.435,1.435,0,0,1,.736-.167l3.038-.007c1.859,0,3.933-.013,3.948-.013a.238.238,0,0,1,.07.009c.275.076.434.577.434.577,0-.707-.095-.853-.313-.882a1.183,1.183,0,0,0-.125-.005l-7.269.012-.035,0C95.709,41.655,95.554,41.849,95.461,42.114Z"/><path class="cls-68" d="M99.31,41.563c1.882,0,3.863-.026,3.863-.026.317,0,.494.6.494.6,0-.85-.12-.9-.422-.9l-7.076.018c-.262,0-.353.2-.444.474a1.153,1.153,0,0,1,.655-.161Z"/><path class="cls-69" d="M99.306,41.583c1.883,0,3.869-.023,3.869-.023.316,0,.494.6.494.6,0-.848-.121-.9-.423-.9l-7.086.018c-.263,0-.354.2-.444.474a1.157,1.157,0,0,1,.656-.162C96.478,41.588,97.828,41.587,99.306,41.583Z"/><path class="cls-70" d="M99.3,41.605c1.881,0,3.872-.022,3.872-.022.318,0,.5.6.5.6,0-.85-.121-.9-.422-.9l-7.1.017c-.262,0-.353.2-.444.473a1.153,1.153,0,0,1,.655-.16Z"/><path class="cls-71" d="M99.3,41.627c1.878,0,3.875-.02,3.875-.02.316,0,.494.6.494.6,0-.85-.12-.9-.423-.9l-7.108.014c-.261,0-.353.2-.444.476a1.147,1.147,0,0,1,.656-.163Z"/><path class="cls-72" d="M99.3,41.65c1.875,0,3.878-.021,3.878-.021.316,0,.5.6.5.6,0-.849-.123-.9-.425-.9l-7.119.014c-.262,0-.352.2-.445.474a1.169,1.169,0,0,1,.658-.161Z"/><path class="cls-73" d="M99.3,41.672c1.873,0,3.882-.021,3.882-.021.315,0,.5.6.5.6,0-.85-.121-.9-.425-.9l-7.129.013c-.262,0-.352.2-.444.474a1.165,1.165,0,0,1,.657-.16Z"/><path class="cls-74" d="M99.294,41.692c1.872,0,3.886-.017,3.886-.017.317,0,.5.6.5.6,0-.849-.123-.9-.425-.9l-7.142.012c-.261,0-.353.2-.443.474a1.155,1.155,0,0,1,.655-.161Z"/><path class="cls-75" d="M99.292,41.714c1.871,0,3.889-.016,3.889-.016.317,0,.5.6.5.6,0-.849-.121-.9-.425-.9l-7.15.012c-.262,0-.353.2-.445.474a1.16,1.16,0,0,1,.657-.161Z"/><path class="cls-76" d="M99.29,41.736c1.868,0,3.893-.016,3.893-.016.316,0,.495.6.495.6,0-.85-.122-.9-.425-.9l-7.161.008c-.264,0-.354.2-.444.474a1.147,1.147,0,0,1,.655-.161Z"/><path class="cls-77" d="M99.287,41.757c1.867,0,3.9-.014,3.9-.014.317,0,.5.6.5.6,0-.847-.122-.9-.425-.9l-7.172.008c-.264,0-.354.2-.445.474a1.153,1.153,0,0,1,.655-.161Z"/><path class="cls-36" d="M99.284,41.779c1.865,0,3.9-.013,3.9-.013.316,0,.494.6.494.6,0-.849-.122-.9-.424-.9l-7.185.008c-.262,0-.353.2-.444.474a1.165,1.165,0,0,1,.656-.162Z"/><path class="cls-78" d="M99.281,41.8c1.864,0,3.906-.011,3.906-.011.316,0,.493.6.493.6,0-.849-.121-.9-.423-.9l-7.2.006c-.262,0-.352.2-.442.474a1.132,1.132,0,0,1,.655-.163Z"/><path class="cls-79" d="M99.279,41.822c1.862,0,3.909-.01,3.909-.01.317,0,.494.6.494.6,0-.849-.121-.9-.424-.9l-7.208.005c-.262,0-.352.2-.443.473a1.161,1.161,0,0,1,.655-.161Z"/><path class="cls-80" d="M99.276,41.844c1.859,0,3.914-.009,3.914-.009.315,0,.494.6.494.6,0-.85-.122-.9-.424-.9l-7.218,0c-.263,0-.354.2-.445.474a1.161,1.161,0,0,1,.655-.16Z"/><path class="cls-81" d="M99.274,41.866c1.857,0,3.916-.009,3.916-.009.317,0,.5.6.5.6,0-.848-.122-.9-.424-.9l-7.23,0c-.261,0-.351.2-.444.474a1.156,1.156,0,0,1,.656-.161Z"/><path class="cls-82" d="M99.272,41.886c1.854,0,3.919-.005,3.919-.005.316,0,.494.6.494.6,0-.85-.12-.9-.423-.9l-7.241,0c-.262,0-.434.2-.525.475a1.445,1.445,0,0,1,.737-.162Z"/><path class="cls-68" d="M40.732,41.238H64.574c.151.024.193.086.259.488-.095-.212-.1-.247-.259-.247H40.76a3.885,3.885,0,0,0-3.1,1.833A3.8,3.8,0,0,1,40.732,41.238Z"/><path class="cls-83" d="M40.732,41.273H64.559c.156.023.218.073.278.484-.1-.208-.116-.242-.278-.242H40.76a3.905,3.905,0,0,0-3.1,1.809A3.828,3.828,0,0,1,40.732,41.273Z"/><path class="cls-84" d="M40.732,41.308H64.544c.159.022.243.06.294.48-.107-.2-.131-.238-.294-.238H40.76a3.938,3.938,0,0,0-3.11,1.786A3.854,3.854,0,0,1,40.732,41.308Z"/><path class="cls-85" d="M40.732,41.343h23.8c.163.022.267.047.311.475-.112-.2-.15-.233-.311-.233H40.76a3.964,3.964,0,0,0-3.116,1.762A3.886,3.886,0,0,1,40.732,41.343Z"/><path class="cls-86" d="M40.732,41.379H64.516c.167.022.292.033.327.47-.118-.2-.166-.229-.327-.229H40.76a3.991,3.991,0,0,0-3.121,1.739A3.909,3.909,0,0,1,40.732,41.379Z"/><path class="cls-87" d="M40.732,41.414H64.5c.169.021.317.019.343.464-.122-.19-.182-.223-.343-.223H40.76a4.011,4.011,0,0,0-3.126,1.716A3.935,3.935,0,0,1,40.732,41.414Z"/><path class="cls-88" d="M40.732,41.449H64.487c.174.02.342.005.36.461-.128-.188-.2-.218-.36-.218H40.76a4.035,4.035,0,0,0-3.132,1.691A3.966,3.966,0,0,1,40.732,41.449Z"/><path class="cls-89" d="M40.732,41.485h23.74c.177.018.367-.008.379.455a.393.393,0,0,0-.379-.214H40.76A4.054,4.054,0,0,0,37.622,43.4,3.989,3.989,0,0,1,40.732,41.485Z"/><path class="cls-35" d="M40.732,41.52H64.458c.181.018.393-.021.394.451a.422.422,0,0,0-.394-.209H40.76a4.074,4.074,0,0,0-3.143,1.647A4.023,4.023,0,0,1,40.732,41.52Z"/><path class="cls-90" d="M40.732,41.555H64.444c.184.017.418-.035.412.446a.463.463,0,0,0-.412-.2H40.76a4.1,4.1,0,0,0-3.148,1.624A4.055,4.055,0,0,1,40.732,41.555Z"/><path class="cls-91" d="M40.732,41.59h23.7c.187.017.443-.049.428.441a.5.5,0,0,0-.428-.2H40.76a4.11,4.11,0,0,0-3.153,1.6A4.088,4.088,0,0,1,40.732,41.59Z"/><path class="cls-78" d="M40.732,41.626H64.415c.191.016.467-.063.445.437a.535.535,0,0,0-.445-.2H40.76A4.122,4.122,0,0,0,37.6,43.445,4.118,4.118,0,0,1,40.732,41.626Z"/><path class="cls-92" d="M40.725,41.679l23.688-.029c.191.016.471-.065.449.436a.549.549,0,0,0-.449-.193L52.7,41.907l-11.946.015h-.006a4.158,4.158,0,0,0-3.158,1.55A4.145,4.145,0,0,1,40.725,41.679Z"/><path class="cls-78" d="M40.717,41.736l23.693-.06c.194.016.475-.066.452.435a.552.552,0,0,0-.452-.192L52.7,41.947l-11.951.03H40.74A4.187,4.187,0,0,0,37.577,43.5,4.16,4.16,0,0,1,40.717,41.736Z"/><path class="cls-78" d="M40.711,41.791l23.7-.089c.193.016.48-.069.454.434a.562.562,0,0,0-.454-.193L52.7,41.987l-11.956.046h-.006a4.221,4.221,0,0,0-3.167,1.495A4.177,4.177,0,0,1,40.711,41.791Z"/><path class="cls-93" d="M40.7,41.846l23.7-.119c.194.015.485-.072.458.434a.565.565,0,0,0-.458-.192L52.7,42.027l-11.962.062h-.008a4.258,4.258,0,0,0-3.171,1.467A4.205,4.205,0,0,1,40.7,41.846Z"/><path class="cls-94" d="M40.7,41.9l23.707-.15c.194.016.49-.073.46.434A.572.572,0,0,0,64.4,42l-11.711.074-11.966.075h-.008a4.3,4.3,0,0,0-3.176,1.44A4.217,4.217,0,0,1,40.7,41.9Z"/><path class="cls-91" d="M40.689,41.956,64.4,41.778c.2.016.494-.076.464.431a.587.587,0,0,0-.464-.19l-11.711.089-11.97.09h-.01a4.341,4.341,0,0,0-3.18,1.413A4.254,4.254,0,0,1,40.689,41.956Z"/><path class="cls-94" d="M40.681,42.012,64.4,41.8c.195.014.493-.076.463.432a.579.579,0,0,0-.463-.191l-11.7.105-11.987.108H40.7a4.375,4.375,0,0,0-3.185,1.387A4.271,4.271,0,0,1,40.681,42.012Z"/><path class="cls-93" d="M40.673,42.069l23.73-.247c.195.014.494-.076.464.432a.586.586,0,0,0-.464-.19l-11.694.121-12,.125H40.7a4.427,4.427,0,0,0-3.19,1.361A4.284,4.284,0,0,1,40.673,42.069Z"/><path class="cls-78" d="M40.665,42.126,64.4,41.844c.2.015.493-.076.463.432a.588.588,0,0,0-.463-.19l-11.686.137L40.7,42.368h-.013A4.479,4.479,0,0,0,37.493,43.7,4.315,4.315,0,0,1,40.665,42.126Z"/><path class="cls-92" d="M40.657,42.182l23.749-.315c.194.015.492-.076.462.431a.587.587,0,0,0-.462-.189l-11.679.153-12.034.162H40.68a4.53,4.53,0,0,0-3.2,1.306A4.344,4.344,0,0,1,40.657,42.182Z"/><path class="cls-37" d="M40.649,42.24l23.757-.351c.194.016.492-.075.462.432a.582.582,0,0,0-.462-.189l-11.67.169-12.049.18h-.015a4.594,4.594,0,0,0-3.2,1.28A4.374,4.374,0,0,1,40.649,42.24Z"/><path class="cls-95" d="M40.641,42.3l23.765-.385c.195.016.493-.075.463.433a.581.581,0,0,0-.463-.19l-11.661.187-12.065.2h-.015a4.646,4.646,0,0,0-3.208,1.252A4.408,4.408,0,0,1,40.641,42.3Z"/><path class="cls-96" d="M40.633,42.353l23.773-.419c.2.015.494-.076.464.433a.584.584,0,0,0-.464-.191l-11.653.2-12.08.216h-.016a4.722,4.722,0,0,0-3.214,1.224A4.45,4.45,0,0,1,40.633,42.353Z"/><path class="cls-97" d="M40.625,42.41l23.783-.453c.194.015.492-.076.462.432a.581.581,0,0,0-.462-.19l-11.645.219-12.1.233h-.019a4.793,4.793,0,0,0-3.217,1.2A4.482,4.482,0,0,1,40.625,42.41Z"/><path class="cls-98" d="M40.617,42.467l23.791-.488c.194.015.492-.075.462.432a.582.582,0,0,0-.462-.19l-11.637.236-12.111.251h-.02a4.867,4.867,0,0,0-3.222,1.172A4.524,4.524,0,0,1,40.617,42.467Z"/><path class="cls-99" d="M40.608,42.523,64.408,42c.2.015.494-.075.463.432a.581.581,0,0,0-.463-.19L52.781,42.5l-12.128.27-.021,0a4.94,4.94,0,0,0-3.225,1.144A4.567,4.567,0,0,1,40.608,42.523Z"/><path class="cls-79" d="M40.6,42.581l23.81-.558c.194.016.492-.074.461.433a.582.582,0,0,0-.461-.19l-11.621.269-12.142.287h-.022a5.039,5.039,0,0,0-3.232,1.117C37.911,43.155,39.363,42.688,40.6,42.581Z"/><path class="cls-100" d="M40.592,42.637l23.818-.591c.194.015.492-.075.462.433a.58.58,0,0,0-.462-.191L52.8,42.574l-12.159.3h-.023A5.143,5.143,0,0,0,37.38,43.97C37.891,43.2,39.355,42.745,40.592,42.637Z"/><path class="cls-101" d="M40.584,42.694l23.826-.625c.194.014.493-.076.462.431a.586.586,0,0,0-.462-.19l-11.6.3-12.174.324h-.025A5.236,5.236,0,0,0,37.368,44C37.874,43.245,39.346,42.8,40.584,42.694Z"/><path class="cls-102" d="M40.575,42.75l23.835-.658c.2.014.494-.077.463.431a.584.584,0,0,0-.463-.19l-11.592.318-12.191.342H40.6a5.334,5.334,0,0,0-3.245,1.036C37.854,43.29,39.339,42.859,40.575,42.75Z"/><path class="cls-38" d="M40.567,42.809l23.845-.7c.194.015.492-.077.461.432a.577.577,0,0,0-.461-.19l-11.586.334-12.206.359h-.027a5.451,5.451,0,0,0-3.249,1.01C37.836,43.334,39.33,42.915,40.567,42.809Z"/><path class="cls-103" d="M40.558,42.865l23.854-.729c.194.016.492-.075.461.432a.579.579,0,0,0-.461-.189l-11.576.35-12.223.377h-.028c-.354,0-2.357.1-3.255.983C37.816,43.378,39.321,42.971,40.558,42.865Z"/><path class="cls-104" d="M40.551,42.921l23.861-.762c.2.015.493-.076.461.432a.575.575,0,0,0-.461-.19l-11.568.368-12.237.393-.03,0c-.354,0-2.373.1-3.259.956C37.8,43.424,39.313,43.03,40.551,42.921Z"/><path class="cls-105" d="M40.542,42.978l23.871-.8c.2.015.493-.075.463.432a.582.582,0,0,0-.463-.19l-11.559.384L40.6,43.22h-.03c-.354,0-2.391.1-3.263.93C37.779,43.468,39.305,43.086,40.542,42.978Z"/><path class="cls-80" d="M40.534,43.036l23.88-.833c.195.015.492-.075.462.433a.583.583,0,0,0-.462-.191l-11.552.4-12.269.429H40.56c-.352,0-2.408.1-3.267.9C37.76,43.514,39.3,43.143,40.534,43.036Z"/><path class="cls-106" d="M40.526,43.092l23.888-.866c.195.014.492-.076.462.432a.576.576,0,0,0-.462-.191l-11.543.418-12.284.448-.035,0c-.352,0-2.426.1-3.271.875C37.742,43.557,39.289,43.2,40.526,43.092Z"/><path class="cls-107" d="M40.518,43.149l23.9-.9c.194.016.492-.075.462.433a.585.585,0,0,0-.462-.191l-11.535.433-12.3.466-.036,0c-.351,0-2.444.1-3.276.847C37.724,43.6,39.281,43.257,40.518,43.149Z"/><path class="cls-108" d="M40.51,43.206l23.906-.936c.194.015.492-.075.462.432a.587.587,0,0,0-.462-.189l-11.527.45-12.316.483-.037,0c-.351,0-2.462.106-3.28.821C37.7,43.647,39.273,43.314,40.51,43.206Z"/><path class="cls-108" d="M40.5,43.263l23.914-.969c.194.014.492-.076.462.43a.581.581,0,0,0-.462-.188L52.9,43l-12.333.5h-.036c-.351,0-2.48.106-3.285.795C37.686,43.692,39.265,43.37,40.5,43.263Z"/><path class="cls-39" d="M40.493,43.32l23.923-1.005c.194.016.492-.075.462.432a.584.584,0,0,0-.462-.19l-11.509.483-12.349.52-.038,0c-.35,0-2.5.107-3.289.767C37.667,43.736,39.257,43.427,40.493,43.32Z"/><path class="cls-109" d="M40.485,43.377l23.932-1.038c.2.014.492-.077.461.432a.575.575,0,0,0-.461-.191l-11.5.5-12.364.537-.04,0c-.35,0-2.515.109-3.294.742C37.647,43.78,39.249,43.484,40.485,43.377Z"/><path class="cls-81" d="M37.205,44.39c.424-.566,2.036-.85,3.272-.957l23.94-1.073c.2.015.492-.075.463.432a.581.581,0,0,0-.463-.19L40.5,43.675C40.155,43.675,37.973,43.783,37.205,44.39Z"/><path class="cls-110" d="M73.3,41.24l7,.01c.262,0,.347.233.464.474-.169-.119-.163-.169-.4-.171H80.3l-3.056,0-3.87-.006c-.436-.058-.492.534-.5.6v0C72.837,41.443,72.978,41.229,73.3,41.24Z"/><path class="cls-111" d="M73.3,41.262l7.009.01c.263,0,.346.23.464.474-.165-.117-.169-.167-.4-.169-.017,0-.042,0-.074,0l-3.056,0-3.869-.006c-.429-.054-.494.539-.5.6v0C72.839,41.457,72.98,41.253,73.3,41.262Z"/><path class="cls-112" d="M73.306,41.284l7.02.009c.262,0,.344.227.462.474-.16-.114-.174-.163-.4-.166-.021,0-.051,0-.086,0l-3.055,0-3.869-.006c-.422-.051-.5.544-.5.6v0C72.84,41.469,72.982,41.277,73.306,41.284Z"/><path class="cls-113" d="M73.306,41.308l7.032.007c.262,0,.342.224.464.474a.547.547,0,0,0-.405-.166c-.026,0-.059,0-.1,0l-3.054,0-3.869,0c-.414-.048-.5.547-.5.6h0C72.842,41.483,72.984,41.3,73.306,41.308Z"/><path class="cls-114" d="M73.306,41.33l7.045.007c.261,0,.339.22.463.473a.558.558,0,0,0-.407-.162.889.889,0,0,0-.11,0c-.239,0-1.648,0-3.052,0l-3.869-.006c-.406-.045-.5.551-.5.6v0C72.843,41.5,72.986,41.322,73.306,41.33Z"/><path class="cls-115" d="M73.306,41.353l7.057,0c.261,0,.338.217.464.474a.582.582,0,0,0-.409-.161,1.083,1.083,0,0,0-.121-.005l-3.052,0c-1.874-.005-3.869-.007-3.869-.007-.4-.04-.5.556-.5.6h0C72.845,41.51,72.987,41.346,73.306,41.353Z"/><path class="cls-116" d="M73.306,41.374l7.069.008c.262,0,.336.213.464.473a.6.6,0,0,0-.41-.161,1.3,1.3,0,0,0-.132-.006l-3.052-.005-3.868-.005c-.391-.036-.5.56-.5.6h0C72.847,41.523,72.989,41.369,73.306,41.374Z"/><path class="cls-117" d="M73.306,41.4l7.081.005c.263,0,.336.212.464.475a.622.622,0,0,0-.411-.159,1.073,1.073,0,0,0-.145-.008l-3.051,0L73.377,41.7c-.384-.032-.5.566-.5.6h0C72.849,41.537,72.99,41.393,73.306,41.4Z"/><path class="cls-118" d="M73.307,41.42l7.094,0c.261,0,.331.208.463.474a.65.65,0,0,0-.413-.158,1.5,1.5,0,0,0-.156-.008l-3.052,0-3.865-.006c-.377-.028-.5.571-.506.6v0C72.851,41.551,72.992,41.416,73.307,41.42Z"/><path class="cls-119" d="M73.307,41.443l7.107,0c.26,0,.329.2.464.474a.7.7,0,0,0-.417-.157,1.459,1.459,0,0,0-.166-.009l-3.052,0c-1.866,0-3.865-.006-3.865-.006-.369-.026-.5.573-.507.6v0C72.854,41.564,72.994,41.439,73.307,41.443Z"/><path class="cls-120" d="M73.307,41.465l7.118,0c.262,0,.329.2.464.474a.708.708,0,0,0-.417-.155,1.475,1.475,0,0,0-.179-.01l-3.05,0c-1.864,0-3.865-.006-3.865-.006-.362-.022-.506.578-.507.6v0C72.855,41.577,73,41.462,73.307,41.465Z"/><path class="cls-121" d="M73.307,41.488l7.13,0c.263,0,.328.2.465.474a.746.746,0,0,0-.418-.154,1.486,1.486,0,0,0-.191-.011l-3.05,0-3.865-.006c-.354-.018-.507.583-.509.6v-.006C72.857,41.591,73,41.485,73.307,41.488Z"/><path class="cls-78" d="M73.307,41.511l7.142,0c.264,0,.325.194.464.474a.768.768,0,0,0-.419-.152,1.482,1.482,0,0,0-.2-.012l-3.049-.005-3.865-.006c-.346-.014-.509.589-.509.6v-.006C72.859,41.605,73,41.507,73.307,41.511Z"/><path class="cls-79" d="M73.307,41.533h7.156c.262,0,.323.192.464.475a.811.811,0,0,0-.421-.151,1.909,1.909,0,0,0-.215-.013l-3.048,0-3.864-.005c-.339-.011-.51.591-.511.6v-.007C72.861,41.617,73,41.531,73.307,41.533Z"/><path class="cls-105" d="M73.308,41.555h7.168c.261,0,.321.188.463.474a.869.869,0,0,0-.424-.148,1.871,1.871,0,0,0-.224-.014l-3.048,0-3.864-.007c-.331-.007-.511.6-.511.6v-.007C72.863,41.631,73,41.554,73.308,41.555Z"/><path class="cls-81" d="M73.308,41.577h7.179c.263,0,.32.185.464.474a.912.912,0,0,0-.425-.147,1.884,1.884,0,0,0-.237-.014l-3.046,0-3.863-.005c-.324,0-.513.6-.515.6v-.009C72.865,41.646,73.006,41.577,73.308,41.577Z"/><path class="cls-122" d="M72.839,42.539c0-.849.192-.928.494-.928H80.64c.2,0,.288.161.463.475a1.2,1.2,0,0,0-.675-.163l-3.161,0L73.4,41.913C73.088,41.913,72.839,42.539,72.839,42.539Z"/><path class="cls-40" d="M73.4,42.079c-.211,0-.389.266-.48.433-.053.087-.083.154-.081.148.006-.513.1-.718.243-.816a.428.428,0,0,1,.275-.07l7.358-.028c.2,0,.292.163.466.474a1.043,1.043,0,0,0-.686-.163h-.04c-.211,0-1.673,0-3.142.01Z"/><path class="cls-82" d="M73.369,41.884l7.392-.049c.193,0,.3.166.468.475a1.081,1.081,0,0,0-.693-.163h-.078c-.282,0-1.684.009-3.1.018-1.883.012-3.938.024-3.958.026a.23.23,0,0,0-.037,0c-.2.025-.365.271-.447.426l-.025.038c-.033.059-.054.1-.052.093.007-.509.107-.705.258-.8A.453.453,0,0,1,73.369,41.884Z"/><path class="cls-67" d="M73.382,42l7.427-.068c.191,0,.3.168.47.476a1.116,1.116,0,0,0-.7-.165h-.04a.362.362,0,0,0-.048,0c-.262,0-1.664.014-3.1.028-1.889.017-3.962.036-4,.038a.172.172,0,0,0-.034,0c-.2.024-.372.273-.454.42l-.022.038c-.033.053-.051.088-.049.078.008-.5.114-.692.272-.78A.481.481,0,0,1,73.382,42Z"/><path class="cls-66" d="M73.394,42.108l7.465-.089c.187,0,.3.169.471.476a1.159,1.159,0,0,0-.7-.164l-.04,0h-.054c-.241,0-1.643.016-3.093.034-1.9.023-3.987.05-4.049.052l-.035,0c-.21.022-.379.273-.457.417l-.022.036c-.031.045-.047.075-.045.063.01-.5.121-.679.286-.763A.505.505,0,0,1,73.394,42.108Z"/><path class="cls-65" d="M73.406,42.219l7.5-.109c.185,0,.307.172.474.478a1.219,1.219,0,0,0-.709-.167H80.63l-.061,0c-.22,0-1.624.021-3.086.044-1.905.028-4.013.062-4.095.066h-.034c-.217.021-.387.276-.464.413l-.02.035c-.028.039-.043.063-.041.049.011-.5.128-.667.3-.748A.587.587,0,0,1,73.406,42.219Z"/><path class="cls-64" d="M73.418,42.331l7.54-.129c.181,0,.309.174.474.479a1.253,1.253,0,0,0-.715-.168h-.041l-.07,0c-.2,0-1.6.025-3.079.053-1.913.035-4.039.073-4.141.078l-.035,0c-.22.018-.393.275-.468.408l-.018.033c-.026.031-.04.05-.038.034.012-.494.135-.655.313-.73A.647.647,0,0,1,73.418,42.331Z"/><path class="cls-63" d="M73.431,42.443l7.577-.148c.177,0,.314.174.475.478a1.316,1.316,0,0,0-.72-.167.31.31,0,0,0-.043,0c-.025,0-.052,0-.076,0-.181,0-1.585.028-3.074.06-1.921.04-4.064.087-4.187.092a.143.143,0,0,0-.034,0c-.226.017-.4.276-.472.4a.388.388,0,0,1-.02.034c-.022.022-.034.036-.032.018.014-.49.143-.642.327-.713A.708.708,0,0,1,73.431,42.443Z"/><path class="cls-62" d="M73.444,42.555l7.612-.169c.175,0,.318.177.478.479a1.4,1.4,0,0,0-.727-.169l-.042,0-.085,0c-.159,0-1.564.032-3.067.071-1.929.045-4.089.1-4.231.1a.208.208,0,0,0-.035,0c-.233.014-.408.276-.477.4l-.019.032c-.02.017-.03.024-.028,0,.014-.486.15-.63.341-.7A.817.817,0,0,1,73.444,42.555Z"/><path class="cls-61" d="M73.456,42.666l7.651-.189c.17,0,.319.179.477.48a1.42,1.42,0,0,0-.732-.168.289.289,0,0,0-.043,0c-.032,0-.063,0-.091,0-.138,0-1.545.036-3.061.077-1.937.052-4.115.11-4.278.118-.018,0-.029,0-.035,0-.235.013-.414.278-.48.394l-.019.03c-.017.009-.026.01-.024-.011.016-.483.157-.617.355-.679A.991.991,0,0,1,73.456,42.666Z"/><path class="cls-60" d="M73.468,42.779l7.686-.209c.169,0,.324.18.483.48a1.535,1.535,0,0,0-.74-.17l-.043,0c-.035,0-.069,0-.1,0-.12,0-1.526.04-3.057.086-1.944.057-4.138.123-4.323.131l-.035,0c-.241.011-.421.278-.485.39l-.017.028c-.014,0-.022,0-.021-.026.019-.478.166-.6.37-.661A1.071,1.071,0,0,1,73.468,42.779Z"/><path class="cls-41" d="M73.481,42.89l7.724-.228c.164,0,.327.183.482.48a1.6,1.6,0,0,0-.743-.171H80.9c-.039,0-.075,0-.107,0-.1,0-1.507.044-3.05.095-1.953.063-4.164.136-4.369.145h-.035c-.246.011-.427.28-.49.385l-.016.029c-.012-.006-.018-.016-.016-.042.018-.474.171-.593.382-.645A1.453,1.453,0,0,1,73.481,42.89Z"/><path class="cls-59" d="M73.494,43l7.76-.249c.16,0,.33.184.483.482a1.663,1.663,0,0,0-.749-.171c-.014,0-.029,0-.044,0-.042,0-.081,0-.113,0-.078,0-1.487.048-3.043.1-1.961.069-4.191.148-4.416.158l-.034,0c-.252.007-.436.278-.5.381l-.015.026a.079.079,0,0,1-.013-.056c.021-.471.18-.581.4-.627A1.64,1.64,0,0,1,73.494,43Z"/><path class="cls-58" d="M73.506,43.113l7.8-.268c.158,0,.334.187.487.482a1.773,1.773,0,0,0-.757-.173h-.045c-.044,0-.084,0-.12,0-.059,0-1.467.053-3.038.113-1.969.074-4.215.159-4.461.171h-.035c-.256.005-.441.28-.5.376-.009.012-.013.022-.015.024a.147.147,0,0,1-.009-.07c.022-.468.187-.567.411-.61A2.641,2.641,0,0,1,73.506,43.113Z"/><path class="cls-57" d="M73.518,43.226l7.835-.289c.153,0,.335.187.486.483a1.83,1.83,0,0,0-.76-.173l-.047,0c-.046,0-.09-.005-.127-.005s-1.448.056-3.031.122c-1.977.079-4.24.171-4.507.183l-.035,0c-.261,0-.449.279-.5.372l-.014.022a.338.338,0,0,1,0-.086c.023-.462.194-.554.425-.592C73.321,43.245,73.418,43.239,73.518,43.226Z"/><path class="cls-56" d="M73.53,43.337l7.872-.308c.15,0,.341.19.489.483a1.922,1.922,0,0,0-.767-.174l-.047,0c-.05,0-.1-.005-.134-.005l-3.027.13-4.551.2h-.036c-.264,0-.456.282-.507.367a.151.151,0,0,0-.013.022.832.832,0,0,1,0-.1c.025-.459.2-.542.439-.577C73.334,43.357,73.43,43.351,73.53,43.337Z"/><path class="cls-56" d="M72.8,44.153c0-.748.344-.646.739-.707l7.908-.328c.149,0,.345.192.491.484a2.462,2.462,0,0,0-.962-.182l-7.652.349C73.012,43.769,72.8,44.153,72.8,44.153Z"/><path class="cls-52" d="M112.1,43.479a4.3,4.3,0,0,1,3.126-1.812l22.481-.036a.434.434,0,0,1,.463.423.568.568,0,0,0-.463-.181l-10.393.018-12.059.02c-.03,0-.07,0-.112,0A4.224,4.224,0,0,0,112.1,43.479Z"/><path class="cls-51" d="M112.093,43.5a3.9,3.9,0,0,1,2.615-1.7,4.407,4.407,0,0,1,.5-.078l22.5-.07a.437.437,0,0,1,.463.424.568.568,0,0,0-.463-.181l-10.368.033-12.1.044-.11,0A4.219,4.219,0,0,0,112.093,43.5Z"/><path class="cls-50" d="M112.081,43.519a3.834,3.834,0,0,1,2.628-1.661,3.564,3.564,0,0,1,.487-.075l22.514-.105a.434.434,0,0,1,.461.423.562.562,0,0,0-.461-.181l-10.347.05-12.138.065-.112,0A4.224,4.224,0,0,0,112.081,43.519Z"/><path class="cls-49" d="M112.069,43.539a3.772,3.772,0,0,1,2.642-1.626,3.4,3.4,0,0,1,.467-.072L137.71,41.7a.434.434,0,0,1,.459.422.561.561,0,0,0-.459-.181l-10.323.066L115.21,42.1H115.1A4.231,4.231,0,0,0,112.069,43.539Z"/><path class="cls-48" d="M112.058,43.558a3.71,3.71,0,0,1,2.655-1.59,3.561,3.561,0,0,1,.446-.069l22.548-.174a.437.437,0,0,1,.462.422.562.562,0,0,0-.462-.18l-10.3.083-12.216.109c-.024,0-.08,0-.114,0A4.235,4.235,0,0,0,112.058,43.558Z"/><path class="cls-47" d="M112.045,43.58a3.66,3.66,0,0,1,2.669-1.557,3.368,3.368,0,0,1,.427-.065l22.566-.21a.439.439,0,0,1,.462.422.563.563,0,0,0-.462-.179l-10.276.1-12.256.131c-.022,0-.081,0-.114,0A4.238,4.238,0,0,0,112.045,43.58Z"/><path class="cls-46" d="M112.036,43.6a3.586,3.586,0,0,1,2.68-1.522,3.011,3.011,0,0,1,.407-.062l22.582-.244a.437.437,0,0,1,.462.422.561.561,0,0,0-.462-.18l-10.254.116-12.292.152-.115,0A4.259,4.259,0,0,0,112.036,43.6Z"/><path class="cls-45" d="M112.023,43.621a4.97,4.97,0,0,1,3.082-1.547l22.6-.279a.435.435,0,0,1,.462.422.561.561,0,0,0-.462-.18l-10.228.132-12.333.175-.116,0A4.276,4.276,0,0,0,112.023,43.621Z"/><path class="cls-44" d="M112.011,43.641a3.5,3.5,0,0,1,2.708-1.453,2.935,2.935,0,0,1,.367-.056l22.617-.314a.439.439,0,0,1,.462.422.565.565,0,0,0-.462-.179l-10.2.147-12.372.2-.118,0A4.3,4.3,0,0,0,112.011,43.641Z"/><path class="cls-43" d="M112,43.661a3.457,3.457,0,0,1,2.722-1.418,2.587,2.587,0,0,1,.348-.052l22.632-.349a.44.44,0,0,1,.464.422.563.563,0,0,0-.464-.181l-10.183.165-12.409.219c-.019,0-.09,0-.117,0A4.337,4.337,0,0,0,112,43.661Z"/><path class="cls-123" d="M111.988,43.681a3.412,3.412,0,0,1,2.734-1.383,2.5,2.5,0,0,1,.328-.049l22.651-.383a.438.438,0,0,1,.462.42.566.566,0,0,0-.462-.178l-10.162.18-12.446.241c-.018,0-.094,0-.119,0A4.352,4.352,0,0,0,111.988,43.681Z"/><path class="cls-124" d="M111.976,43.7a3.375,3.375,0,0,1,2.747-1.348,2.525,2.525,0,0,1,.312-.047l22.664-.418a.441.441,0,0,1,.463.421.565.565,0,0,0-.463-.179l-10.136.2-12.486.262-.12,0C114.516,42.608,112.748,42.738,111.976,43.7Z"/><path class="cls-125" d="M111.965,43.721c.426-.845,1.548-1.174,2.76-1.312a2.26,2.26,0,0,1,.292-.043l22.679-.453a.44.44,0,0,1,.466.42.567.567,0,0,0-.466-.178l-10.11.214-12.526.283-.12,0C114.5,42.669,112.709,42.793,111.965,43.721Z"/><path class="cls-126" d="M111.952,43.742c.418-.842,1.549-1.148,2.774-1.279a2.548,2.548,0,0,1,.272-.04l22.7-.487a.443.443,0,0,1,.466.421.571.571,0,0,0-.466-.179l-10.09.23-12.563.306-.12,0C114.493,42.73,112.67,42.847,111.952,43.742Z"/><path class="cls-127" d="M111.941,43.762c.412-.839,1.55-1.12,2.788-1.242a1.8,1.8,0,0,1,.25-.038l22.716-.523a.445.445,0,0,1,.465.421.568.568,0,0,0-.465-.179l-10.065.248-12.6.328-.122,0C114.484,42.791,112.631,42.9,111.941,43.762Z"/><path class="cls-127" d="M111.93,43.783c.4-.836,1.55-1.094,2.8-1.209.07-.015.161-.027.232-.035l22.733-.557a.445.445,0,0,1,.465.421.568.568,0,0,0-.465-.179l-10.046.264-12.64.349c-.011,0-.105,0-.121.006C114.472,42.852,112.594,42.953,111.93,43.783Z"/><path class="cls-128" d="M111.918,43.8c.4-.833,1.551-1.066,2.814-1.174a1.517,1.517,0,0,1,.213-.03l22.748-.593a.445.445,0,0,1,.465.42.568.568,0,0,0-.465-.178l-10.019.28-12.68.371-.124,0C114.462,42.913,112.555,43.008,111.918,43.8Z"/><path class="cls-129" d="M111.906,43.823c.389-.827,1.553-1.039,2.827-1.139a1.757,1.757,0,0,1,.193-.027l22.765-.628a.448.448,0,0,1,.467.42.574.574,0,0,0-.467-.178l-10,.3-12.717.393-.125.005C114.45,42.974,112.517,43.062,111.906,43.823Z"/><path class="cls-130" d="M111.894,43.843c.383-.825,1.553-1.011,2.839-1.105.049-.01.127-.019.175-.024l22.783-.661a.444.444,0,0,1,.464.42.558.558,0,0,0-.464-.177l-9.973.312-12.759.415-.123,0C114.44,43.035,112.478,43.116,111.894,43.843Z"/><path class="cls-131" d="M111.883,43.864c.335-.74,1.592-.987,2.852-1.07a1.174,1.174,0,0,1,.155-.02l22.8-.7a.447.447,0,0,1,.466.419.57.57,0,0,0-.466-.176l-9.951.329-12.793.436-.127,0C114.43,43.1,112.44,43.169,111.883,43.864Z"/><path class="cls-132" d="M111.871,43.883c.367-.817,1.555-.955,2.866-1.034.034-.008.1-.014.135-.018l22.817-.732a.449.449,0,0,1,.466.421.573.573,0,0,0-.466-.178l-9.926.345-12.837.459-.125.005C114.418,43.156,112.4,43.224,111.871,43.883Z"/><path class="cls-133" d="M111.859,43.905c.359-.816,1.556-.931,2.88-1a1.143,1.143,0,0,1,.116-.013l22.832-.767a.45.45,0,0,1,.468.419.579.579,0,0,0-.468-.177l-9.905.361-12.872.483-.126,0C114.408,43.217,112.364,43.277,111.859,43.905Z"/><path class="cls-134" d="M111.848,43.925c.352-.812,1.557-.9,2.892-.966a.8.8,0,0,1,.1-.011l22.85-.8a.449.449,0,0,1,.466.42.575.575,0,0,0-.466-.177l-9.882.378-12.912.5-.127.006C114.4,43.278,112.325,43.331,111.848,43.925Z"/><path class="cls-135" d="M111.836,43.945c.345-.808,1.558-.875,2.905-.931l.078-.007,22.866-.837a.45.45,0,0,1,.466.419.569.569,0,0,0-.466-.177l-9.858.4-12.95.524-.128,0C114.386,43.338,112.286,43.385,111.836,43.945Z"/><path class="cls-136" d="M111.824,43.965c.338-.805,1.56-.848,2.918-.9.007,0,.051,0,.059-.005l22.881-.871a.45.45,0,0,1,.469.418.577.577,0,0,0-.469-.177l-9.831.412-12.991.547-.128,0C114.375,43.4,112.248,43.438,111.824,43.965Z"/><path class="cls-137" d="M111.812,43.986c.329-.8,1.56-.821,2.931-.862l22.939-.907a.454.454,0,0,1,.469.419.58.58,0,0,0-.469-.177l-22.968,1C114.365,43.461,112.21,43.493,111.812,43.986Z"/><path class="cls-138" d="M40.851,40.055c3.129-.071,23.218-.019,23.9.007h.037a1.252,1.252,0,0,1,.9.261,1.129,1.129,0,0,0-.9-.382h-.032c-.7-.025-20.775-.078-23.9-.007a4.63,4.63,0,0,0-3.677,1.923A4.656,4.656,0,0,1,40.851,40.055Z"/><path class="cls-138" d="M42.758,54.853a.933.933,0,0,0,.849.428c1.215.027,14.236.039,14.982.014a1.074,1.074,0,0,0,.55-.2,1.486,1.486,0,0,1-.554.074c-.745.025-13.761.014-14.975-.013A1.162,1.162,0,0,1,42.758,54.853Z"/><path class="cls-138" d="M64.882,47.57,59,47.576l-4.044.005H53.12A1.39,1.39,0,0,0,52.038,48a1.491,1.491,0,0,1,1.083-.293l11.761-.014a1.434,1.434,0,0,1,.6.073A1.161,1.161,0,0,0,64.882,47.57Z"/><path class="cls-138" d="M81.879,41.2c-.3-.521-.662-1.02-1.229-1.076-.424-.041-7.627,0-7.68,0l-.01-.12a.337.337,0,0,1,.042,0l0,.121-.036,0a1.171,1.171,0,0,0-.942.218A1.249,1.249,0,0,1,72.97,40l.032,0,0,.121H72.97l-.01-.12c.042,0,7.289-.039,7.7,0C81.29,40.069,81.582,40.693,81.879,41.2Z"/><path class="cls-139" d="M93.992,42.328c-.89,1.57-2.345,4.266-3.966,7.138l-1.733,3.065-.052.094-.053-.094c-.96-1.722-5.336-9.614-6.309-11.327.965,1.7,5.584,9.78,6.414,11.267h-.105l1.732-3.065C91.521,46.571,93.1,43.9,93.992,42.328Z"/><path class="cls-140" d="M91.324,59.686c.378-.667,1.5-2.587,1.5-2.587,1.6-2.836,3.18-5.5,4.072-7.079-.89,1.57-2.344,4.265-3.968,7.137l-1.512,2.616Z"/><path class="cls-141" d="M85.2,59.9c-1.108-1.987-4.605-8.3-5.549-9.968.93,1.639,4.6,8.03,5.64,9.885Z"/><path class="cls-138" d="M104.169,40.229a1.421,1.421,0,0,0-.445-.038H103.7c-.746,0-7.3-.026-7.607-.013a1.246,1.246,0,0,0-1.138.582c-.041.064-.5.753-.966,1.568.471-.828.821-1.568.864-1.635a1.35,1.35,0,0,1,1.236-.636c.3-.014,6.865.009,7.611.012h.025A1.211,1.211,0,0,1,104.169,40.229Z"/><path class="cls-138" d="M111.3,42.447a5.006,5.006,0,0,1,4.141-2.4c2.815-.059,22.1-.039,22.565-.02a1.651,1.651,0,0,1,.474.138,2.4,2.4,0,0,0-.479-.016c-.471-.02-19.743-.04-22.558.019A4.9,4.9,0,0,0,111.3,42.447Z"/><path class="cls-138" d="M117.746,54.971c1.048.016,14.442-.019,18.831-.028l1.514.059-1.514.064c-3.868,0-14.707.026-17.935.02A2.323,2.323,0,0,1,117.746,54.971Z"/><path class="cls-138" d="M66.378,47.424c.053.914.286,6.8-.242,8.687a2.933,2.933,0,0,1-.431,1.049s.529-1.146.448-4.8A22.8,22.8,0,0,1,66.378,47.424Z"/><path class="cls-138" d="M66.464,39.866c.122.5,0,4.449.053,5.216.037.521-.081.054-.066.162a6.731,6.731,0,0,1-.122-1.883A22.523,22.523,0,0,1,66.464,39.866Z"/><path d="M140.144,55.144a1.863,1.863,0,0,0-.213-.709c-.213-.173-.484.022-.789.273-.344.285-.438.42-.41.5.295,0,.88-.18.926.269a10.362,10.362,0,0,1,.155,2.02c-.1,1.288.022,2.053-.342,2.531s-6.748.243-12.763.278c-11.711.067-13.582.343-15.464-1.508l.4.643a4.742,4.742,0,0,0,2.961,1.346c1.524.076,24.5-.03,24.492-.025l.71-.031c.276-.132.315-.438.341-.823A42.993,42.993,0,0,0,140.144,55.144Z"/><path d="M98.832,60.8a1.4,1.4,0,0,1-.882-.032,1.072,1.072,0,0,1-.406-.747c0-.233-.04-8.675-.02-9.063.165.791.084,7.219.165,8.3.376-1.588.673-11.62-.054-8.742l.672-2.742s.209,10.421.209,10.542c0,.558.628.809.526.983.039.288.457.282.341.388-.249.177-1.251-.424-1.15.747.182.272.411.235.665.248S98.832,60.8,98.832,60.8Z"/><path d="M78.083,47.221a10.784,10.784,0,0,1-.565-2.491L77.444,45s.012,13.722.024,14.007,0,.579-.554.606-4.119.041-4.377-.05c-.1.026-.21.006.1.174.888.087,4.028.05,4.3.037a.894.894,0,0,0,.77-.319c.611.057,1.1,1.306,1.037,1.252.181-.182.16-.471.179-.8.1-1.762.02-8.87-.019-9.14l-.047,7.251c-.027,1.183-.661-6.738-.713-7.114-.3-2.137.143-2.83.915-.82C79.051,50.085,78.647,49.1,78.083,47.221Z"/><path d="M97.528,49.439c.834-3.577-.484-.121-1.392,1.171-1.246,2.306-2.66,4.41-5.418,8.846l-.059.069a.753.753,0,0,1-.629.252l-3.592-.013h-.022c-.233-.083-.251-.118-.428-.451.2.31.3.29.452.29,0,0,3.162.013,3.59.013a.453.453,0,0,0,.412-.17c3.228-5.19,7.888-13.959,8.173-14.462a.506.506,0,0,1,.18-.213Z"/><path d="M43.342,54.329a.76.76,0,0,0-.949.543,1.6,1.6,0,0,1-.169-.613c-.006-.13-.02-2.241-.032-4.1-.012-1.809-.023-3.682-.03-4.108a1.34,1.34,0,0,1,.253-.808,1.354,1.354,0,0,0,.926.7.714.714,0,0,0-.1.393c.009.834.088,5.543.036,7.468a1.286,1.286,0,0,0,.04.478"/><path d="M66.623,45.628a.547.547,0,0,0,.169-.477s.026-4.142.012-5.047a.832.832,0,0,0-.345-.742,1.8,1.8,0,0,0,.032.53c.04.431-.04,4.855.026,5.19C66.574,45.366,66.513,45.5,66.623,45.628Z"/><path d="M71.148,60.677a1.147,1.147,0,0,1-.249-.769c-.02-.621.037-19.074,0-19.558a1.189,1.189,0,0,1,.341-.872c.38-.2.508.6.711.965-.565-.524-.727-.12-.687.646s-.04,10.731.02,16.974c-.03,2.289.556-.172.658-.736,0,1.031,0,1.656,0,1.715v.016a.86.86,0,0,0,.219.655c-.336.06-.267.2-.412.427-.106.207-.741.192.832.233s4.734,0,4.814,0,1.026.43-.013.483-4.911.072-5.5.043-.461-.075-.757-.25"/><path d="M52.2,51.745a1.4,1.4,0,0,1-.1-.483c-.026-.494-.037-2.2-.026-2.469-.161-.7-.77-1.016-.931-.35.009.7-.053,1.9.049,3.111a2.507,2.507,0,0,0,.161.718C51.671,52.667,51.983,52.346,52.2,51.745Z"/><path d="M59.162,55.441a1.266,1.266,0,0,0,.763-1.3c.012-1.148.013-1.663,0-1.838h0a3.318,3.318,0,0,1-1.007,1.158,4.409,4.409,0,0,1,.039.71C59.256,54.738,59.471,55.025,59.162,55.441Z"/><path d="M65.245,48.009a1.019,1.019,0,0,0-.363-.055l-11.761.012c-.271.04-.283-.019-.579.44a.977.977,0,0,1,.579-.117c.452,0,11.464-.014,11.761-.014s.483.039.509.683.007,5.85.007,6.2a4.353,4.353,0,0,1-4.221,4.3c-3.267.1-19.945.051-20.269.051a4.637,4.637,0,0,1-4.234-4.2c-.1-1.091-.083-9.8-.077-10.341.007-.813.9-4.253,4.267-4.33s23.36-.013,23.863.007c.194.006.645-.092.684.7S65.4,43.564,65.4,43.9s-.17.771-.531.783a.982.982,0,0,0,.619-.2c.328.147.279.357.816.652-.619-.646-.51-.646-.581-1.236,0-.086,0-.249.008-.458.014-.607.033-1.523,0-2.114a4.784,4.784,0,0,0,.676-1.382c-.676,1.382-.888.591-1.03.54a.94.94,0,0,0-.591-.162h-.05c-.661-.026-20.753-.079-23.883-.006a4.436,4.436,0,0,0-3.82,2.3c-1.067.58-.789.185-1.438.225a4.132,4.132,0,0,0-.253,1.418c.016.659-.089,6.041.038,10.729A6.323,6.323,0,0,0,36.6,58.758a5.5,5.5,0,0,0,4.222,2.052c.4,0,2.889-.049,5.655-.048,6.683,0,15.229.034,16.056-.081a5.008,5.008,0,0,0,2.784-1.546l-.068-.309a4.253,4.253,0,0,1-3.59,1.506H60.615c-5.132-.151-18.195.041-20.979-.2a4.811,4.811,0,0,1-2.38-1.532c-.01-.277-.117-.211.5-.208a4.86,4.86,0,0,0,3.15,1.278l.366,0c5.082.012,17.193.033,19.913-.054A4.362,4.362,0,0,0,64.3,58.493c.152.064.47-.957.957.865a7.589,7.589,0,0,0,1.56-4.62c.038-.717.032-6.244.006-6.926a.917.917,0,0,0-.452-.837,8.138,8.138,0,0,0,.058,1.214c.081.848.234,6.171-.444,8.432a1.821,1.821,0,0,1-1,1.322,6.841,6.841,0,0,0,.333-.975,4.769,4.769,0,0,0,.41-1.812v-.468c0-1.418.014-5.187-.009-5.742-.185-1.056.307-.877.388-1.565-.363.688-.242.364-.856.628"/><path d="M72.432,40.844c.151-.3.317-.454.558-.456"/><path d="M72.422,40.856c.172-.219.483-.137.593-.146.156-.013,7.306-.027,7.577,0s.375.206.647.673,6.452,11.44,6.584,11.7c.18.348.477.618.774.1s6.674-11.826,6.856-12.109.372-.3.669-.31,7.579.013,7.579.013c.348.014.5.231.529.709s.008,17.532.008,17.532a.5.5,0,0,1-.551.567H99.463c-.155,0-.314,0-.4-.221.105.323.182.335.4.384h4.224a1.241,1.241,0,0,0,.544-.1.7.7,0,0,1,.981.667c-.02.274-.413.137-1.149.18s-5.382.012-5.607-.04-.485.175-.646.093.189.362.561.385,6.118.007,6.118.007a1.282,1.282,0,0,0,.879-.269,1.83,1.83,0,0,0,.192-1.109c0-.93.038-18.551-.02-19.423-.026-.406-.092-.635-.265-.766-.377.037-.559.792-.137,1.543.108,2.5.269,18.208-.806,18.343,0-.7.085-17.308.059-17.79a2.5,2.5,0,0,0-.083-.573c-.13-.343.4-.357.48-.787.128-.683.016.108-.753.385a.794.794,0,0,0-.321-.039H103.7c-.3,0-7.292-.026-7.595-.012a.982.982,0,0,0-.927.46c-.115.179-2.3,4.043-4.926,8.694L88.317,53.02c-.062.109-.073.13-.073.131s-.014-.007,0,0a.791.791,0,0,1-.134-.22c-.122-.236-6.282-11.18-6.6-11.717-.285-.489-.456-.782-.89-.825-.357-.035-7.592,0-7.634,0H73"/><path d="M139.2,56.541c-.069,1.6.147,2.057-.3,2.723-.142.226-.432.267-.937.282-.836.025-20.283.135-22.655.078a4.64,4.64,0,0,1-2.217-.614,3.077,3.077,0,0,0-2.472-.83,5.679,5.679,0,0,1-.764-2.416c0-.93-.014-11.3-.014-11.3a5.08,5.08,0,0,1,.223-1.444c.975-.726,1.075-.329,1.318-.09a4.721,4.721,0,0,1,2.634-2.255l.022.334a4.552,4.552,0,0,0-2.924,4.235c.018,1.259-.019,7.243-.019,9.721a4.331,4.331,0,0,0,4.221,4.493c2.439.058,22-.057,22.636-.078s.717-.173.736-.6.04-1.782.02-2.325-.175-.812-.621-.812-19.052.038-20.311.018a1.539,1.539,0,0,1-1.571-1.49c-.057-.465-.1-7.262-.114-8a1.7,1.7,0,0,1,1.82-1.666c1.239,0,19.364.021,20.041,0s.717-.134.756-.715.02-1.7.038-2.286-.308-.754-.774-.773-19.751-.041-22.52.019a4.419,4.419,0,0,0-1.414.256l-.022-.334a4.774,4.774,0,0,1,1.429-.245c2.814-.06,22.072-.039,22.541-.02.849-.173,1.551-.313,1.847-.928a1.736,1.736,0,0,1,.347,1.028,30.536,30.536,0,0,1-.079,4.424c-.114.569-.2.819-.439.923a.71.71,0,0,0-.095-.566c-.066-.12.577-5.816-.544-4.717-.309.3-.183.268.014.589-.044.764.02,2.609-.063,2.888a2.966,2.966,0,0,1-.178.383,1.182,1.182,0,0,1-.833.236c-.557.016-12.683.007-17.864,0l-2.188,0a1.531,1.531,0,0,0-1.127.433c.049.621.133.865.953,1.024a1.078,1.078,0,0,0-.174.744c.018.736.056,5.919.036,6.469a1.264,1.264,0,0,0,.1.634c-.407.382-.693,1.246.083,1.366,1.049.017,14.4-.009,18.792-.017l1.514,0A1.149,1.149,0,0,1,139.2,56.541Z"/><path class="cls-138" d="M71.763,51.941c.064,2.658.18,5.054.18,5.054l.11-11.916.009-3.774a1.576,1.576,0,0,1,.319-.9.836.836,0,0,0-.642.929l-.085,3.778S71.684,48.712,71.763,51.941Z"/><path class="cls-138" d="M37.192,57.731a4.862,4.862,0,0,1-.759-2.4c-.1-1.114-.082-9.939-.078-10.365l.01-.089a4.18,4.18,0,0,1,.276-1.466,6.355,6.355,0,0,0-.553,1.449l-.01.1c0,.436-.022,9.27.079,10.389A4.928,4.928,0,0,0,37.192,57.731Z"/><path class="cls-138" d="M111.336,57.321a5.128,5.128,0,0,1-.48-2.352l.012-3.978c.009-2.443.019-4.97.008-5.74a4.731,4.731,0,0,1,.251-1.759,5.276,5.276,0,0,0-.648,1.761c.009.769,0,3.3-.009,5.738l-.012,3.978A5.4,5.4,0,0,0,111.336,57.321Z"/><path class="cls-138" d="M138.83,40.867a.912.912,0,0,1,.163.653c.006.232-.01.552-.012.893a11.988,11.988,0,0,1-.1,1.9,3.524,3.524,0,0,0,.425-1.9c.008-.146-.036-.174-.022-.6A1.1,1.1,0,0,0,138.83,40.867Z"/><path class="cls-138" d="M138.587,55.445c.31.128.406.74.408.954,0,.571-.049,2.447-.069,2.856.011-.205.33.015.361-1.626.009-.466.046-.952.035-1.237A.972.972,0,0,0,138.587,55.445Z"/><path class="cls-138" d="M116.558,45.481a1.945,1.945,0,0,0-.221.691c0,.241.015,1.11.024,2.21.019,2.043.052,5.464.09,5.764a1.3,1.3,0,0,0,.621,1.007c-.278-.18-.285-.452-.343-.909-.037-.291-.07-3.7-.087-5.745-.011-1.1-.02-1.971-.026-2.213C116.612,46.1,116.469,45.694,116.558,45.481Z"/><path d="M43.491,44.419a1.656,1.656,0,0,0-1.252.407,1.717,1.717,0,0,0-.481,1.231c.008.5.018,2.263.03,4.1.014,2.065.026,4.018.034,4.125a1.638,1.638,0,0,0,1.772,1.581,1.6,1.6,0,0,1-1.611-1.593c-.007-.1-.02-2.142-.032-4.116-.012-1.808-.024-3.678-.032-4.1a1.548,1.548,0,0,1,.436-1.114A1.609,1.609,0,0,1,43.491,44.419Z"/><path d="M85.621,60.693c.389.287.49.153,1.548.153a23.046,23.046,0,0,0,3.7-.055c.227-.2.328-.341.275-.439a4.388,4.388,0,0,0-.245-.4,1.06,1.06,0,0,1-.955.545,10.987,10.987,0,0,1-1.494-.081,11,11,0,0,1-1.694,0s-.908.187-.767-.171a2.25,2.25,0,0,0,.107-.356s-.1.038-.3.286C85.505,60.532,85.285,60.442,85.621,60.693Z"/><path d="M79.121,47.5l.31,1.674s-.109-.924.619.35c.411.725,4.755,8.251,4.755,8.251Z"/><path class="cls-142" d="M53.151,48.7c-.283,0-.359.082-.359.339,0,.191-.07-.011-.07-.011l.021-.393h.418Z"/><path class="cls-113" d="M53.186,48.87c-.136,0-.222.045-.222.181l.01-.176Z"/><path class="cls-142" d="M64.568,48.683a.429.429,0,0,1,.413.348c0,.191.071-.01.071-.01l-.02-.394h-.419Z"/><path class="cls-113" d="M64.568,48.863c.136,0,.247.043.247.178l.015-.181Z"/><path class="cls-81" d="M137.9,56.2c.136,0,.247.04.247.176l.017-.182Z"/><path class="cls-143" d="M66.919,47.755a.938.938,0,0,0-.9-1c-2.26-.124-11.952-.1-13.2,0a1.747,1.747,0,0,0-1.7,1.635c0,.193-.025,2.238.049,3.116a1.715,1.715,0,0,0,1.872,1.759c1.853-.005,5.527,0,5.545,0,.161.011.284.028.308.154a4.516,4.516,0,0,1,.037.7c0,.133-.063.184-.24.2H43.646a.268.268,0,0,1-.2-.059c-.072-.075-.082-.238-.074-.51.045-1.663-.036-7.471-.036-7.471a.618.618,0,0,1,.152-.43.557.557,0,0,1,.416-.147c1.337,0,21.978.02,22.347.025a.538.538,0,0,0,.642-.628c0-.041.025-4.154.012-5.049-.015-.971-.84-1-1.5-1.027-.926.009-24.506.08-24.676.09A5.672,5.672,0,0,0,36.444,41.2a5.007,5.007,0,0,0-1.119,3.012c0,.176-.056,7.3.038,10.728A6.065,6.065,0,0,0,37.312,59.5a5.451,5.451,0,0,0,3.534,1.342s16.564-.011,20.661.02a4.711,4.711,0,0,0,4.606-2.669,8.66,8.66,0,0,0,.8-3.424S66.943,48.408,66.919,47.755Zm-.251,7.008a8.463,8.463,0,0,1-.771,3.322A4.482,4.482,0,0,1,61.51,60.62c-4.052-.029-20.5-.019-20.664-.019a5.212,5.212,0,0,1-3.375-1.281A5.838,5.838,0,0,1,35.6,54.93c-.077-2.807-.05-8.038-.041-10.009,0-.486,0-.684,0-.718,0-.118.012-.307.02-.393A5.356,5.356,0,0,1,40.233,39.4a3.619,3.619,0,0,1,.509-.05c.182-.005,8.135-.032,14.526-.054,5.2-.016,9.694-.032,10.13-.035.782.029,1.256.1,1.266.788.013.882-.012,4.875-.012,5.045a.311.311,0,0,1-.4.388c-.37-.006-21.014-.027-22.351-.027a.794.794,0,0,0-.588.22.868.868,0,0,0-.223.605c0,.057.081,5.822.037,7.459a.923.923,0,0,0,.143.685.49.49,0,0,0,.372.134H58.714c.384-.031.464-.256.464-.44a4.584,4.584,0,0,0-.042-.743c-.061-.321-.388-.341-.528-.351-.041,0-3.9-.008-5.563-.005a1.48,1.48,0,0,1-1.629-1.536c-.061-.718-.053-2.266-.05-2.849,0-.129,0-.215,0-.25A1.506,1.506,0,0,1,52.84,47c1.247-.1,10.914-.123,13.17,0a.693.693,0,0,1,.668.766C66.7,48.4,66.668,54.577,66.668,54.763Z"/><path class="cls-144" d="M70.84,52.4c.011-5.242.02-11.767,0-12.046v-.007c.044-.932.594-1.2,1.408-1.315.313-.045,4.811-.031,7.228-.024.691,0,1.189,0,1.222,0a1.887,1.887,0,0,1,1.754,1.108c.02.037,4.939,8.791,5.313,9.6.316.685.436.66.5.645h.009a.218.218,0,0,1,.043-.005c.076-.008.192-.018.438-.561.539-1.191,4.619-8.5,5.387-9.653a1.828,1.828,0,0,1,1.6-1.011s8.168-.022,8.635,0c.924.037,1.163.16,1.219,1.006.052.752.022,19.518.022,19.518,0,.863,0,1.22-.984,1.343-.11.013-6.2,0-6.2,0a.9.9,0,0,1-.636-.275,1.054,1.054,0,0,1-.317-.7s-.033-8.745-.018-9.066c.014-.25-.077-.589-.2-.628-.06-.02-.141.044-.228.179-.179.281-5.67,9.82-5.744,9.918-.311.417-.368.493-.928.509-.331.01-3.824.01-4.007.02a1.542,1.542,0,0,1-1.371-.841c-.385-.624-5.029-8.886-5.406-9.59-.11-.21-.263-.3-.409-.25a.412.412,0,0,0-.212.483c.039.278.013,9.3.013,9.3-.017.448-.034.871-.846.9-.572.02-5.706.028-6.453,0-.365-.014-.807-.207-.833-1.046C70.83,59.65,70.834,56.291,70.84,52.4Zm.239,7.5c.022.71.354.8.6.812.747.029,5.865.022,6.436,0,.587-.021.594-.224.613-.67,0,0,.026-8.921-.012-9.249v.012a.655.655,0,0,1,.369-.76c.208-.076.5-.017.706.365.376.7,5.013,8.954,5.4,9.576a1.3,1.3,0,0,0,1.153.727c.188-.01,3.684-.01,4.012-.019.443-.014.443-.014.742-.413.074-.1,5.55-9.617,5.732-9.9.195-.3.382-.321.507-.281.307.1.382.63.37.872-.015.313.02,9.052.02,9.052a.812.812,0,0,0,.245.525.654.654,0,0,0,.464.2l1.419,0c1.827,0,4.59.013,4.755,0,.772-.1.772-.248.772-1.1,0,0,.03-18.757-.021-19.5-.044-.673-.137-.746-.986-.78-.466-.018-8.227-.019-8.562,0a2.022,2.022,0,0,0-1.467.907c-.767,1.151-4.832,8.431-5.368,9.617-.255.565-.42.681-.637.7l-.017,0s.146-.03-.007,0c-.282.059-.477-.138-.774-.78-.372-.8-5.277-9.537-5.3-9.574a1.659,1.659,0,0,0-1.539-.992c-.032,0-8.123-.024-8.424.018-.864.124-1.168.4-1.2,1.091v-.026C71.1,40.6,71.071,59.645,71.079,59.9Z"/><path class="cls-145" d="M109.785,44.468a5.536,5.536,0,0,1,5-5.315c.488-.02,22.7-.061,24.061-.055,1.049,0,1.312.543,1.4,1.41a31.173,31.173,0,0,1-.079,4.442c-.175.854-.282,1.037-1.008,1.037l-1.424,0c-4.4,0-17.8.014-19.467,0-.4.017-.659.174-.64.887.017.687.057,5.889.038,6.472a.943.943,0,0,0,.14.671.372.372,0,0,0,.283.1c.143,0,18.275-.014,20.276-.018,1.585-.005,1.657.09,1.828.972l.013.064a43.733,43.733,0,0,1,0,4.778c-.034.486-.07.99-.877.948-.525-.027-23.909.018-24.124.019a5.247,5.247,0,0,1-3.693-1.475,5.661,5.661,0,0,1-1.712-3.634S109.785,44.468,109.785,44.468Zm.255,11.291v-.01a5.425,5.425,0,0,0,1.639,3.479,5.015,5.015,0,0,0,3.525,1.408c.212,0,23.608-.047,24.137-.019.547.028.584-.187.622-.722a43.654,43.654,0,0,0,0-4.717s.007.034-.014-.064c-.148-.765-.15-.78-1.589-.776-2,.006-20.133.019-20.276.019a.61.61,0,0,1-.456-.173,1.112,1.112,0,0,1-.209-.847c.02-.58-.02-5.771-.038-6.456-.02-.749.257-1.109.869-1.136h.008s15.064.005,19.461,0h1.435c.548,0,.6-.023.772-.843a31.892,31.892,0,0,0,.074-4.37c-.076-.787-.278-1.189-1.158-1.193-1.356,0-23.562.037-24.05.056a5.1,5.1,0,0,0-3.139,1.442,5.042,5.042,0,0,0-1.629,3.633S110.042,55.767,110.04,55.759Z"/><path class="cls-146" d="M64.963,43.427c.012-.562.087-1.291.058-1.854a1.885,1.885,0,0,0-.1-.466l0-.012-.012-.008-.006,0a.758.758,0,0,0-.1,0c-.029,0-.058,0-.09,0-.661-.025-20.712-.077-23.837-.006-3.1.072-3.829,3.3-3.833,3.892-.007.722-.016,9.265.074,10.3a4.227,4.227,0,0,0,3.793,3.791h.368c5.077.015,17.179.035,19.887-.051a3.936,3.936,0,0,0,3.791-3.856l0-.47c0-1.28.013-5.171-.008-5.71a.721.721,0,0,1,.02-.172h0l.016-.08a.142.142,0,0,1-.08-.061l-.073.035.007.022-11.715.013a1.89,1.89,0,0,0-.194.008l0-.009-.077-.023a.142.142,0,0,1-.051.055l.033.075,0,0c-.009.288,0,1.917.028,2.384a.906.906,0,0,0,.027.192l0,.007,0,.008h0s.014.011.017.015l.013-.007a.826.826,0,0,0,.151.011l.766,0c2.775,0,5.653-.007,5.973,0a.794.794,0,0,1,.88.795v.016c.015.188.015.561,0,1.9a2.045,2.045,0,0,1-2.068,2.169c-.749.025-13.819.014-15.039-.013a2.06,2.06,0,0,1-2.124-2c-.007-.106-.016-1.346-.035-4.147-.01-1.806-.023-3.676-.031-4.1a2.079,2.079,0,0,1,.587-1.492,2.058,2.058,0,0,1,1.51-.6c7.223,0,20.973.009,21.311,0a.363.363,0,0,0,.144-.027l0,0,0-.006,0,0,0,0a.189.189,0,0,0,0-.044C64.954,43.806,64.958,43.638,64.963,43.427Zm-.163.467c-.338.01-14.087,0-21.309,0a2.141,2.141,0,0,0-1.568.62,2.166,2.166,0,0,0-.609,1.55c.008.422.019,2.292.031,4.1.019,2.8.027,4.042.033,4.151a2.141,2.141,0,0,0,2.2,2.078c1.218.026,14.293.037,15.043.012a2.123,2.123,0,0,0,2.146-2.25c.013-1.337.013-1.71,0-1.9,0,0,0,0,0-.014a.864.864,0,0,0-.958-.87c-.319-.01-3.2-.007-5.975,0l-.766,0a.8.8,0,0,1-.1-.006,1.028,1.028,0,0,1-.017-.144c-.026-.474-.035-2.152-.026-2.393h0a1.509,1.509,0,0,1,.2-.011s11.1-.011,11.729-.013a1.486,1.486,0,0,1,.016.18c.02.536.01,4.428.008,5.706l0,.47a3.853,3.853,0,0,1-3.712,3.775c-2.708.087-14.808.065-19.884.052h-.369A4.133,4.133,0,0,1,37.2,55.265c-.091-1.031-.081-9.568-.075-10.29,0-.579.719-3.741,3.755-3.811,3.124-.071,23.171-.019,23.831.006h.15a.769.769,0,0,1,.031.2c.025.562.006,1.5-.006,2.055,0,.2-.009.367-.009.463A.407.407,0,0,1,64.8,43.894Z"/><path class="cls-147" d="M103.738,41.232v-.005l-.008-.007-.006,0-.024,0h-.016c-2.913-.013-7.313-.024-7.54-.014s-.259.012-.316.1c-.14.226-3.009,5.3-4.906,8.662L88.982,53.4a.839.839,0,0,1-.75.509c-.22-.005-.539-.117-.8-.629-.14-.265-6.285-11.184-6.577-11.683a3.99,3.99,0,0,0-.257-.409l.011-.035h-.043l0,0v0l0,0c-.345-.023-7.111-.011-7.5,0h0a1.013,1.013,0,0,1-.157,0c-.032,0-.06,0-.084,0l-.037-.017a.082.082,0,0,1-.027.022l.011.041a.663.663,0,0,0-.007.112l-.01,3.777c-.013,4.769-.038,13.646-.03,13.93v.015c0,.151.088.142.087.12.729.051,3.5.05,4.094.02l.063,0,.03.005c0-.011.06-.023.07-.029l-.027-.054c0-.017,0-.037,0-.061C77.01,58.7,77,45.133,77,45a.653.653,0,0,1,1.227-.4c.121.164,1.746,3.063,5.342,9.5l.006.01c1.391,2.486,2.7,4.834,2.789,4.977l.01.013.034.071.067,0L90,59.172l.107-.006h0v0l.014-.038C92.862,54.7,96.6,47.78,97.834,45.5c.218-.408.35-.652.393-.729.24-.42.511-.474.7-.442a.653.653,0,0,1,.508.574l.009.043v.043c0,.533.013,13.093,0,13.846a2.03,2.03,0,0,0,.008.23c-.021,0,0,.087.093.08h4.144a.358.358,0,0,0,.1-.013.7.7,0,0,0,.01-.11c0-4.729.012-17.09-.009-17.508A.781.781,0,0,0,103.738,41.232Zm-23.15-.052a.269.269,0,0,0-.024-.024v0l.022.019Zm-.034-.026h0l0,0ZM99.531,59.06a1.9,1.9,0,0,1-.009-.229c.013-.754,0-13.314,0-13.847v-.056l-.008-.046a.737.737,0,0,0-.574-.639c-.214-.034-.521.022-.78.482-.046.078-.177.323-.4.728-1.235,2.29-4.976,9.221-7.717,13.638H90.03l-3.568-.014c-.008-.012-.018-.025-.028-.042-.086-.141-1.4-2.49-2.789-4.974l0-.011c-3.6-6.436-5.224-9.338-5.347-9.506A.734.734,0,0,0,76.918,45c0,.137.012,13.7.027,14.03,0,.023,0,.039,0,.055a.473.473,0,0,1-.058,0c-.6.03-3.4.032-4.1-.019v-.043l0-.016c-.007-.281.016-9.157.03-13.926l.01-3.777c0-.031,0-.056,0-.077a.505.505,0,0,1,.054,0,1.141,1.141,0,0,0,.156,0h0c.277-.01,6.926-.024,7.483,0a4,4,0,0,1,.256.409c.29.5,6.436,11.414,6.575,11.679a1.028,1.028,0,0,0,.873.672.915.915,0,0,0,.821-.549l1.94-3.432c1.9-3.359,4.766-8.437,4.905-8.66.035-.055.035-.055.25-.065s4.619,0,7.531.014a1.049,1.049,0,0,1,.03.213c.02.416.013,12.775.008,17.5a.185.185,0,0,1,0,.043h-4.18Z"/><polygon class="cls-148" points="138.198 56.106 138.198 56.106 138.198 56.106 138.198 56.106"/><path class="cls-149" d="M137.959,41.18c-.485-.019-19.73-.038-22.494.019a4.018,4.018,0,0,0-3.9,4.046c.011.773,0,3.3-.007,5.749l-.013,3.975a3.9,3.9,0,0,0,3.788,4.049c2.367.058,21.781-.051,22.612-.077a2.05,2.05,0,0,0,.221-.016l.075-.02c0-.022.01-.11.011-.141.021-.434.039-1.78.019-2.287a.712.712,0,0,0-.069-.37l-.006,0,0,0,0,0,0,0a.369.369,0,0,0-.107-.014l-1.512,0c-4.391.009-17.749.032-18.807.016a1.963,1.963,0,0,1-2-1.879c-.039-.314-.065-2.725-.095-5.842-.01-1.1-.017-1.964-.024-2.2a2.05,2.05,0,0,1,.59-1.456,2.256,2.256,0,0,1,1.674-.665l2.19,0c5.175,0,17.293.013,17.839,0,.095,0,.161-.006.211-.013v0h0l.089-.047.012-.055h0c.006-.056.009-.124.016-.192.022-.331.024-.876.026-1.357,0-.345,0-.672.011-.913S138.3,41.194,137.959,41.18Zm-.017,2.809c-.547.015-12.662.006-17.837,0l-2.19,0a2.348,2.348,0,0,0-1.734.689,2.142,2.142,0,0,0-.611,1.515c.007.235.016,1.1.025,2.2.03,3.12.055,5.533.095,5.851a2.038,2.038,0,0,0,2.081,1.95c1.059.016,14.417-.008,18.808-.017l1.514,0c.022,0,.041,0,.052,0a.979.979,0,0,1,.042.306c.018.507,0,1.846-.018,2.281,0,.033,0,.061-.006.082a1.728,1.728,0,0,1-.223.018c-.832.025-20.241.134-22.608.077a3.823,3.823,0,0,1-3.709-3.969l.013-3.975c.008-2.446.017-4.977.007-5.75a3.934,3.934,0,0,1,3.823-3.963c2.763-.058,22-.039,22.488-.02.279.012.279.033.273.233-.009.242-.009.57-.011.915,0,.48,0,1.024-.027,1.352,0,.042-.01.139-.018.213C138.123,43.98,138.053,43.986,137.942,43.989Z"/><path class="cls-150" d="M38.234,57.74a3.843,3.843,0,0,1-1-2.479c-.091-1.03-.081-9.564-.075-10.286,0-.573.713-3.7,3.716-3.771,2.564-.059,16.941-.02,23.3,0h.261a.852.852,0,0,1,.364.044c.061.06.074,2.131.077,2.611l.132-1.289c-.03-1.035-.088-1.441-.16-1.456-.271-.057-.412-.071-.412-.071-6.219-.02-20.965-.062-23.566,0C37.742,41.115,37,44.377,37,44.975c-.006.722-.015,9.266.076,10.3A4,4,0,0,0,38.234,57.74Z"/><path class="cls-151" d="M59.81,51.407a.81.81,0,0,1,.839.838v.015c.014.188.014.559,0,1.894a2.01,2.01,0,0,1-2.029,2.13c-.75.023-13.817.013-15.036-.015A2.02,2.02,0,0,1,41.5,54.305c0-.074-.022-2.456-.037-4.559-.013-1.8-.026-3.492-.03-3.684a2.041,2.041,0,0,1,.575-1.462,2.091,2.091,0,0,1,1.482-.666,2.127,2.127,0,0,0-1.6.552,2.207,2.207,0,0,0-.621,1.579c0,.191.016,1.886.027,3.683.021,2.722.033,4.511.037,4.568a2.178,2.178,0,0,0,2.244,2.116c1.219.026,14.3.037,15.044.012a2.161,2.161,0,0,0,2.186-2.289c.013-1.34.013-1.713,0-1.906,0,0,0,0,0-.016C60.769,51.658,60.422,51.426,59.81,51.407Z"/><path class="cls-152" d="M64.809,48.866c0,.713.018,4.556.024,6.29a4.352,4.352,0,0,1-1.643,3.2A4.142,4.142,0,0,0,65,55.156c-.007-2.169-.016-6.463-.016-6.463s-12.056.008-12.1.013c-.034,0-.077-.018-.072.08-.009.319-.007,1.984.025,2.439.013.17.054.182.243.182-.053,0-.062-.088-.062-.088s-.014-.016-.02-.107c-.028-.416-.026-1.866-.02-2.336C53.977,48.87,63.757,48.868,64.809,48.866Z"/><path class="cls-153" d="M78.259,44.568c-.365-.5-.73-.457-.853-.417a.809.809,0,0,0-.527.846c0,.122.089,11,.1,13.6-.013-2.052.059-13.475.059-13.6a.654.654,0,0,1,.416-.693A.685.685,0,0,1,78.259,44.568Z"/><path class="cls-154" d="M84.092,47.452c-.395-.7-.725-1.446-1.105-2.117-1.146-2.027-2.039-3.618-2.222-3.944a.377.377,0,0,0-.16-.236,1.244,1.244,0,0,0-.4-.046c-.848-.018-6.134-.006-6.2-.006a5.224,5.224,0,0,0-1.271.026,4.022,4.022,0,0,0-.018.665c0,.142.054,14.107.055,16.83,0,0,.1-16.018.109-17.354.8,0,6.726-.016,7.575,0,.07,0,.063.028.063.028.031.058.659,1.167.659,1.167l1.666,2.95C83.228,46.088,83.7,46.75,84.092,47.452Z"/><path class="cls-155" d="M99.484,57.065c0-3.776.079-12.082.079-12.082v-.055l0-.008-.009-.045a.775.775,0,0,0-.608-.672c-.224-.036-.551.022-.822.5,0,0-.682,1.379-1.714,3.207l1.855-3.126c.179-.318.406-.463.655-.423a.617.617,0,0,1,.476.543l.009.046v.032S99.484,53.063,99.484,57.065Z"/><path class="cls-156" d="M92.2,47.788c-1.508,2.666-3.13,5.373-3.256,5.594a.8.8,0,0,1-.712.489c-.21-.005-.514-.113-.77-.607-.031-.06-.437-.617-.967-1.558.511.906.794,1.576.824,1.632a1.062,1.062,0,0,0,.909.694.951.951,0,0,0,.856-.57C89.12,53.4,90.538,50.729,92.2,47.788Z"/><path class="cls-157" d="M92.2,47.788c1.707-3.019,3.659-6.3,3.729-6.416a.14.14,0,0,1,.02-.029h0a1,1,0,0,1,.2-.017c.224-.009,7.462.014,7.536.014-.027,0-.041-.014-.043-.021a.713.713,0,0,1,.025.2c.012.248.014,6.516.017,11.552l.081,3.816c0-1.047.079-2.4.079-3.816,0-5.038,0-11.215-.016-11.468a.571.571,0,0,0-.382-.421c-.3,0-7.022-.045-7.249-.036a.839.839,0,0,0-.538.377C95.584,41.641,94,44.614,92.2,47.788Z"/><path class="cls-158" d="M138.23,43.765c.014-.217.074-1.907.084-1.991.04-.4-.282-.619-.644-.635-.485-.018-19.443-.038-22.206.02a4.06,4.06,0,0,0-3.944,4.087c.013.763-.017,9.633-.017,9.723a3.613,3.613,0,0,0,1.224,2.889,4.685,4.685,0,0,1-1.064-2.889c0-.089.031-8.961.021-9.727a3.9,3.9,0,0,1,3.783-3.922c2.764-.057,22-.038,22.485-.019.24.011.24.011.235.192C138.184,41.579,138.244,43.553,138.23,43.765Z"/><path class="cls-159" d="M138.209,58.762c.018-.435.119-1.778.1-2.286-.007-.277-.023-.379-.109-.408a.518.518,0,0,0-.107-.018c-.191,0-19.273.036-20.318.02a1.925,1.925,0,0,1-1.963-1.844c-.03-.237-.119-8.037-.119-8.037a2.017,2.017,0,0,1,.577-1.427,2.237,2.237,0,0,1,1.647-.734,2.374,2.374,0,0,0-1.761.621,2.168,2.168,0,0,0-.623,1.545s.089,7.806.119,8.052a2.076,2.076,0,0,0,2.121,1.985c1.046.016,20.153-.028,20.344-.028.03,0-.01,0,0,0a.886.886,0,0,1,.031.278C138.165,56.987,138.227,58.33,138.209,58.762Z"/><path class="cls-138" d="M78.8,50.372c-.121-.463-.393-.751-.474-.126s.474,6.843.514,7.247Z"/><path class="cls-138" d="M97.628,51.215c-.075.219.165-1.592.331-.27.059.484.294,2.394-.251,7.915Z"/><path class="cls-138" d="M104.844,41.828s-.056,11.6-.081,15.733a3.974,3.974,0,0,1-.376,1.721,8.732,8.732,0,0,0,.11-.957c.031-3.687.031-17.025.031-17.025l-.032-.413A2.512,2.512,0,0,1,104.844,41.828Z"/><path class="cls-138" d="M138.33,41.445a.468.468,0,0,0-.43-.485H115.267a4.275,4.275,0,0,0-3.065,2.017A4.619,4.619,0,0,1,115.3,41.2H137.9c.4,0,.215,1.8.377,1.962C138.3,42.389,138.358,41.82,138.33,41.445Z"/><path class="cls-138" d="M80.375,40.991h-7.19c-.364.02-.461.12-.461.5,0,.329.041,1.187.041,1.964,0,0,.068-1,.126-1.656l.007-.05c.021-.526.243-.547.383-.547,0,0,2.095,0,3.985,0,1.467,0,2.818-.009,2.924-.009.207,0,.454.238.608.476s.181.3.286.353C80.994,41.747,80.638,40.991,80.375,40.991Z"/><path class="cls-138" d="M64.588,40.96H40.732a4.271,4.271,0,0,0-3.066,2.017A4.619,4.619,0,0,1,40.76,41.2H64.588c.4,0,.215,1.8.377,1.962.022-.776.081-1.345.053-1.72A.469.469,0,0,0,64.588,40.96Z"/><path class="cls-138" d="M103.354,41H96.162c-.261,0-.514.467-.605.74a.571.571,0,0,0,.183-.163c-.009.025.206-.277.2-.253a.954.954,0,0,1,.595-.088c.106,0,1.364,0,2.833,0,1.888,0,3.993-.014,3.993-.014.356.048.288.525.283.554.049.359.033.821.046.966a4.725,4.725,0,0,0,.087.72c.021-.8.039-1.634.039-1.964A.454.454,0,0,0,103.354,41Z"/><path class="cls-142" d="M72.707,41.734c0-.093-.038-.751.365-.751H72.56Z"/><path d="M141.319,58.011A1.686,1.686,0,1,1,143,59.719,1.681,1.681,0,0,1,141.319,58.011Zm3.163,0a1.477,1.477,0,1,0-1.478,1.5A1.473,1.473,0,0,0,144.482,58.011Zm-1.2.092a.43.43,0,0,0,.463-.484.493.493,0,0,0-.185-.44.766.766,0,0,0-.484-.092h-.694v1.894h.231V58.1H143l.556.878h.3Zm-.669-.207v-.625h.508c.322,0,.37.139.37.3,0,.3-.139.323-.415.323Z"/></svg>